<?xml version="1.0" encoding="UTF-8" standalone="no"?><svg xmlns="http://www.w3.org/2000/svg" xmlns:xlink="http://www.w3.org/1999/xlink" contentScriptType="application/ecmascript" contentStyleType="text/css" height="477px" preserveAspectRatio="none" style="width:757px;height:477px;" version="1.1" viewBox="0 0 757 477" width="757px" zoomAndPan="magnify"><defs><filter height="300%" id="f1uakrvl04z3w6" width="300%" x="-1" y="-1"><feGaussianBlur result="blurOut" stdDeviation="2.0"/><feColorMatrix in="blurOut" result="blurOut2" type="matrix" values="0 0 0 0 0 0 0 0 0 0 0 0 0 0 0 0 0 0 .4 0"/><feOffset dx="4.0" dy="4.0" in="blurOut2" result="blurOut3"/><feBlend in="SourceGraphic" in2="blurOut3" mode="normal"/></filter></defs><g><!--MD5=[dd430b671f247037c3d3af64e9fb01da]
class WeatherData--><rect fill="#FEFECE" filter="url(#f1uakrvl04z3w6)" height="190.5059" id="WeatherData" style="stroke: #A80036; stroke-width: 1.5;" width="186" x="6" y="276"/><ellipse cx="57.75" cy="292" fill="#ADD1B2" rx="11" ry="11" style="stroke: #A80036; stroke-width: 1.0;"/><path d="M60.2231,298.1431 Q59.6421,298.4419 59.0029,298.5913 Q58.3638,298.7407 57.6582,298.7407 Q55.1514,298.7407 53.8315,297.0889 Q52.5117,295.437 52.5117,292.3159 Q52.5117,289.1865 53.8315,287.5347 Q55.1514,285.8828 57.6582,285.8828 Q58.3638,285.8828 59.0112,286.0322 Q59.6587,286.1816 60.2231,286.4805 L60.2231,289.2031 Q59.5923,288.6221 58.9988,288.3523 Q58.4053,288.0825 57.7744,288.0825 Q56.4297,288.0825 55.7449,289.1492 Q55.0601,290.2158 55.0601,292.3159 Q55.0601,294.4077 55.7449,295.4744 Q56.4297,296.541 57.7744,296.541 Q58.4053,296.541 58.9988,296.2712 Q59.5923,296.0015 60.2231,295.4204 Z "/><text fill="#000000" font-family="sans-serif" font-size="12" lengthAdjust="spacingAndGlyphs" textLength="74" x="78.25" y="296.5352">WeatherData</text><line style="stroke: #A80036; stroke-width: 1.5;" x1="7" x2="191" y1="308" y2="308"/><rect fill="none" height="6" style="stroke: #C82930; stroke-width: 1.0;" width="6" x="14" y="316"/><text fill="#000000" font-family="sans-serif" font-size="11" lengthAdjust="spacingAndGlyphs" textLength="147" x="26" y="322.6348">List&lt;IObserver&gt; observers</text><rect fill="none" height="6" style="stroke: #C82930; stroke-width: 1.0;" width="6" x="14" y="328.9551"/><text fill="#000000" font-family="sans-serif" font-size="11" lengthAdjust="spacingAndGlyphs" textLength="93" x="26" y="335.5898">float temperature</text><rect fill="none" height="6" style="stroke: #C82930; stroke-width: 1.0;" width="6" x="14" y="341.9102"/><text fill="#000000" font-family="sans-serif" font-size="11" lengthAdjust="spacingAndGlyphs" textLength="74" x="26" y="348.5449">float humidity</text><rect fill="none" height="6" style="stroke: #C82930; stroke-width: 1.0;" width="6" x="14" y="354.8652"/><text fill="#000000" font-family="sans-serif" font-size="11" lengthAdjust="spacingAndGlyphs" textLength="75" x="26" y="361.5">float pressure</text><line style="stroke: #A80036; stroke-width: 1.5;" x1="7" x2="191" y1="367.8203" y2="367.8203"/><ellipse cx="17" cy="378.8203" fill="#84BE84" rx="3" ry="3" style="stroke: #038048; stroke-width: 1.0;"/><text fill="#000000" font-family="sans-serif" font-size="11" lengthAdjust="spacingAndGlyphs" textLength="128" x="26" y="382.4551">void RegisterObserver()</text><ellipse cx="17" cy="391.7754" fill="#84BE84" rx="3" ry="3" style="stroke: #038048; stroke-width: 1.0;"/><text fill="#000000" font-family="sans-serif" font-size="11" lengthAdjust="spacingAndGlyphs" textLength="126" x="26" y="395.4102">void RemoveObserver()</text><ellipse cx="17" cy="404.7305" fill="#84BE84" rx="3" ry="3" style="stroke: #038048; stroke-width: 1.0;"/><text fill="#000000" font-family="sans-serif" font-size="11" lengthAdjust="spacingAndGlyphs" textLength="122" x="26" y="408.3652">void NotifyObservers()</text><rect fill="#F24D5C" height="6" style="stroke: #C82930; stroke-width: 1.0;" width="6" x="14" y="414.6855"/><text fill="#000000" font-family="sans-serif" font-size="11" lengthAdjust="spacingAndGlyphs" textLength="128" x="26" y="421.3203">float _GetTemperature()</text><rect fill="#F24D5C" height="6" style="stroke: #C82930; stroke-width: 1.0;" width="6" x="14" y="427.6406"/><text fill="#000000" font-family="sans-serif" font-size="11" lengthAdjust="spacingAndGlyphs" textLength="107" x="26" y="434.2754">float _GetHumidity()</text><rect fill="#F24D5C" height="6" style="stroke: #C82930; stroke-width: 1.0;" width="6" x="14" y="440.5957"/><text fill="#000000" font-family="sans-serif" font-size="11" lengthAdjust="spacingAndGlyphs" textLength="106" x="26" y="447.2305">float _GetPressure()</text><ellipse cx="17" cy="456.5508" fill="#84BE84" rx="3" ry="3" style="stroke: #038048; stroke-width: 1.0;"/><text fill="#000000" font-family="sans-serif" font-size="11" lengthAdjust="spacingAndGlyphs" textLength="160" x="26" y="460.1855">void MeasurementsChanged()</text><!--MD5=[157670393f9014ea34847ceb5851574b]
class ISubject--><rect fill="#FEFECE" filter="url(#f1uakrvl04z3w6)" height="86.8652" id="ISubject" style="stroke: #A80036; stroke-width: 1.5;" width="154" x="22" y="129"/><ellipse cx="72.25" cy="145" fill="#B4A7E5" rx="11" ry="11" style="stroke: #A80036; stroke-width: 1.0;"/><path d="M68.6777,141.2651 L68.6777,139.1069 L76.0571,139.1069 L76.0571,141.2651 L73.5918,141.2651 L73.5918,149.3418 L76.0571,149.3418 L76.0571,151.5 L68.6777,151.5 L68.6777,149.3418 L71.1431,149.3418 L71.1431,141.2651 Z "/><text fill="#000000" font-family="sans-serif" font-size="12" font-style="italic" lengthAdjust="spacingAndGlyphs" textLength="45" x="92.75" y="149.5352">ISubject</text><line style="stroke: #A80036; stroke-width: 1.5;" x1="23" x2="175" y1="161" y2="161"/><line style="stroke: #A80036; stroke-width: 1.5;" x1="23" x2="175" y1="169" y2="169"/><ellipse cx="33" cy="180" fill="#84BE84" rx="3" ry="3" style="stroke: #038048; stroke-width: 1.0;"/><text fill="#000000" font-family="sans-serif" font-size="11" lengthAdjust="spacingAndGlyphs" textLength="128" x="42" y="183.6348">void RegisterObserver()</text><ellipse cx="33" cy="192.9551" fill="#84BE84" rx="3" ry="3" style="stroke: #038048; stroke-width: 1.0;"/><text fill="#000000" font-family="sans-serif" font-size="11" lengthAdjust="spacingAndGlyphs" textLength="126" x="42" y="196.5898">void RemoveObserver()</text><ellipse cx="33" cy="205.9102" fill="#84BE84" rx="3" ry="3" style="stroke: #038048; stroke-width: 1.0;"/><text fill="#000000" font-family="sans-serif" font-size="11" lengthAdjust="spacingAndGlyphs" textLength="122" x="42" y="209.5449">void NotifyObservers()</text><!--MD5=[21ee70214d070d545642beb8c75f25d8]
class CurrentConditionsDisplay--><rect fill="#FEFECE" filter="url(#f1uakrvl04z3w6)" height="73.9102" id="CurrentConditionsDisplay" style="stroke: #A80036; stroke-width: 1.5;" width="177" x="211.5" y="135.5"/><ellipse cx="226.5" cy="151.5" fill="#ADD1B2" rx="11" ry="11" style="stroke: #A80036; stroke-width: 1.0;"/><path d="M228.9731,157.6431 Q228.3921,157.9419 227.7529,158.0913 Q227.1138,158.2407 226.4082,158.2407 Q223.9014,158.2407 222.5815,156.5889 Q221.2617,154.937 221.2617,151.8159 Q221.2617,148.6865 222.5815,147.0347 Q223.9014,145.3828 226.4082,145.3828 Q227.1138,145.3828 227.7612,145.5322 Q228.4087,145.6816 228.9731,145.9805 L228.9731,148.7031 Q228.3423,148.1221 227.7488,147.8523 Q227.1553,147.5825 226.5244,147.5825 Q225.1797,147.5825 224.4949,148.6492 Q223.8101,149.7158 223.8101,151.8159 Q223.8101,153.9077 224.4949,154.9744 Q225.1797,156.041 226.5244,156.041 Q227.1553,156.041 227.7488,155.7712 Q228.3423,155.5015 228.9731,154.9204 Z "/><text fill="#000000" font-family="sans-serif" font-size="12" lengthAdjust="spacingAndGlyphs" textLength="145" x="240.5" y="156.0352">CurrentConditionsDisplay</text><line style="stroke: #A80036; stroke-width: 1.5;" x1="212.5" x2="387.5" y1="167.5" y2="167.5"/><line style="stroke: #A80036; stroke-width: 1.5;" x1="212.5" x2="387.5" y1="175.5" y2="175.5"/><ellipse cx="222.5" cy="186.5" fill="#84BE84" rx="3" ry="3" style="stroke: #038048; stroke-width: 1.0;"/><text fill="#000000" font-family="sans-serif" font-size="11" lengthAdjust="spacingAndGlyphs" textLength="127" x="231.5" y="190.1348">void Update(Object obj)</text><ellipse cx="222.5" cy="199.4551" fill="#84BE84" rx="3" ry="3" style="stroke: #038048; stroke-width: 1.0;"/><text fill="#000000" font-family="sans-serif" font-size="11" lengthAdjust="spacingAndGlyphs" textLength="73" x="231.5" y="203.0898">void Display()</text><!--MD5=[1dcf94be89f1d1c6c4f8f797da90f5fa]
class IObserver--><rect fill="#FEFECE" filter="url(#f1uakrvl04z3w6)" height="60.9551" id="IObserver" style="stroke: #A80036; stroke-width: 1.5;" width="153" x="323.5" y="8"/><ellipse cx="367.75" cy="24" fill="#B4A7E5" rx="11" ry="11" style="stroke: #A80036; stroke-width: 1.0;"/><path d="M364.1777,20.2651 L364.1777,18.1069 L371.5571,18.1069 L371.5571,20.2651 L369.0918,20.2651 L369.0918,28.3418 L371.5571,28.3418 L371.5571,30.5 L364.1777,30.5 L364.1777,28.3418 L366.6431,28.3418 L366.6431,20.2651 Z "/><text fill="#000000" font-family="sans-serif" font-size="12" font-style="italic" lengthAdjust="spacingAndGlyphs" textLength="56" x="388.25" y="28.5352">IObserver</text><line style="stroke: #A80036; stroke-width: 1.5;" x1="324.5" x2="475.5" y1="40" y2="40"/><line style="stroke: #A80036; stroke-width: 1.5;" x1="324.5" x2="475.5" y1="48" y2="48"/><ellipse cx="334.5" cy="59" fill="#84BE84" rx="3" ry="3" style="stroke: #038048; stroke-width: 1.0;"/><text fill="#000000" font-family="sans-serif" font-size="11" lengthAdjust="spacingAndGlyphs" textLength="127" x="343.5" y="62.6348">void Update(Object obj)</text><!--MD5=[eec51a66d6ef8c9d6fcb15493d697f85]
class StatisticsDisplay--><rect fill="#FEFECE" filter="url(#f1uakrvl04z3w6)" height="73.9102" id="StatisticsDisplay" style="stroke: #A80036; stroke-width: 1.5;" width="153" x="423.5" y="135.5"/><ellipse cx="452" cy="151.5" fill="#ADD1B2" rx="11" ry="11" style="stroke: #A80036; stroke-width: 1.0;"/><path d="M454.4731,157.6431 Q453.8921,157.9419 453.2529,158.0913 Q452.6138,158.2407 451.9082,158.2407 Q449.4014,158.2407 448.0815,156.5889 Q446.7617,154.937 446.7617,151.8159 Q446.7617,148.6865 448.0815,147.0347 Q449.4014,145.3828 451.9082,145.3828 Q452.6138,145.3828 453.2612,145.5322 Q453.9087,145.6816 454.4731,145.9805 L454.4731,148.7031 Q453.8423,148.1221 453.2488,147.8523 Q452.6553,147.5825 452.0244,147.5825 Q450.6797,147.5825 449.9949,148.6492 Q449.3101,149.7158 449.3101,151.8159 Q449.3101,153.9077 449.9949,154.9744 Q450.6797,156.041 452.0244,156.041 Q452.6553,156.041 453.2488,155.7712 Q453.8423,155.5015 454.4731,154.9204 Z "/><text fill="#000000" font-family="sans-serif" font-size="12" lengthAdjust="spacingAndGlyphs" textLength="91" x="469" y="156.0352">StatisticsDisplay</text><line style="stroke: #A80036; stroke-width: 1.5;" x1="424.5" x2="575.5" y1="167.5" y2="167.5"/><line style="stroke: #A80036; stroke-width: 1.5;" x1="424.5" x2="575.5" y1="175.5" y2="175.5"/><ellipse cx="434.5" cy="186.5" fill="#84BE84" rx="3" ry="3" style="stroke: #038048; stroke-width: 1.0;"/><text fill="#000000" font-family="sans-serif" font-size="11" lengthAdjust="spacingAndGlyphs" textLength="127" x="443.5" y="190.1348">void Update(Object obj)</text><ellipse cx="434.5" cy="199.4551" fill="#84BE84" rx="3" ry="3" style="stroke: #038048; stroke-width: 1.0;"/><text fill="#000000" font-family="sans-serif" font-size="11" lengthAdjust="spacingAndGlyphs" textLength="73" x="443.5" y="203.0898">void Display()</text><!--MD5=[bc07ab1af7d1149f6f107f733b75e9b5]
class ThirdPartyDisplay--><rect fill="#FEFECE" filter="url(#f1uakrvl04z3w6)" height="48" id="ThirdPartyDisplay" style="stroke: #A80036; stroke-width: 1.5;" width="134" x="612" y="148.5"/><ellipse cx="627" cy="164.5" fill="#ADD1B2" rx="11" ry="11" style="stroke: #A80036; stroke-width: 1.0;"/><path d="M629.4731,170.6431 Q628.8921,170.9419 628.2529,171.0913 Q627.6138,171.2407 626.9082,171.2407 Q624.4014,171.2407 623.0815,169.5889 Q621.7617,167.937 621.7617,164.8159 Q621.7617,161.6865 623.0815,160.0347 Q624.4014,158.3828 626.9082,158.3828 Q627.6138,158.3828 628.2612,158.5322 Q628.9087,158.6816 629.4731,158.9805 L629.4731,161.7031 Q628.8423,161.1221 628.2488,160.8523 Q627.6553,160.5825 627.0244,160.5825 Q625.6797,160.5825 624.9949,161.6492 Q624.3101,162.7158 624.3101,164.8159 Q624.3101,166.9077 624.9949,167.9744 Q625.6797,169.041 627.0244,169.041 Q627.6553,169.041 628.2488,168.7712 Q628.8423,168.5015 629.4731,167.9204 Z "/><text fill="#000000" font-family="sans-serif" font-size="12" lengthAdjust="spacingAndGlyphs" textLength="102" x="641" y="169.0352">ThirdPartyDisplay</text><line style="stroke: #A80036; stroke-width: 1.5;" x1="613" x2="745" y1="180.5" y2="180.5"/><line style="stroke: #A80036; stroke-width: 1.5;" x1="613" x2="745" y1="188.5" y2="188.5"/><!--MD5=[9ffb2f0f96e8b9ef503471202746e35a]
reverse link ISubject to WeatherData--><path d="M99,236.35 C99,248.89 99,262.33 99,275.68 " fill="none" id="ISubject&lt;-WeatherData" style="stroke: #A80036; stroke-width: 1.0; stroke-dasharray: 7.0,7.0;"/><polygon fill="none" points="92,236.25,99,216.25,106,236.25,92,236.25" style="stroke: #A80036; stroke-width: 1.0;"/><!--MD5=[29fad75126cdb9fe7063096690cd70a6]
reverse link IObserver to CurrentConditionsDisplay--><path d="M365.47,85.08 C353.01,101.53 339.12,119.86 327.36,135.39 " fill="none" id="IObserver&lt;-CurrentConditionsDisplay" style="stroke: #A80036; stroke-width: 1.0; stroke-dasharray: 7.0,7.0;"/><polygon fill="none" points="359.9,80.84,377.56,69.12,371.06,89.29,359.9,80.84" style="stroke: #A80036; stroke-width: 1.0;"/><!--MD5=[424640363defc647831929753e1b1797]
reverse link IObserver to StatisticsDisplay--><path d="M434.53,85.08 C446.99,101.53 460.88,119.86 472.64,135.39 " fill="none" id="IObserver&lt;-StatisticsDisplay" style="stroke: #A80036; stroke-width: 1.0; stroke-dasharray: 7.0,7.0;"/><polygon fill="none" points="428.94,89.29,422.44,69.12,440.1,80.84,428.94,89.29" style="stroke: #A80036; stroke-width: 1.0;"/><!--MD5=[bde37530c5dd4081c2a35977a021fc9a]
reverse link IObserver to ThirdPartyDisplay--><path d="M483.75,77.44 C518.04,93.16 558.03,111.72 594,129 C606.79,135.15 620.58,141.96 633.25,148.3 " fill="none" id="IObserver&lt;-ThirdPartyDisplay" style="stroke: #A80036; stroke-width: 1.0; stroke-dasharray: 7.0,7.0;"/><polygon fill="none" points="480.63,83.71,465.35,69.03,486.45,70.98,480.63,83.71" style="stroke: #A80036; stroke-width: 1.0;"/><!--MD5=[89c98d818f2d6a30da7deb124c504587]
link IObserver to ISubject--><path d="M331.25,69.15 C291.17,86.49 239.67,108.86 194,129 C192.1,129.84 190.18,130.68 188.25,131.54 " fill="none" id="IObserver-&gt;ISubject" style="stroke: #A80036; stroke-width: 1.0;"/><polygon fill="#FFFFFF" points="176.22,136.87,183.3265,138.094,187.1895,132.0049,180.0831,130.7809,176.22,136.87" style="stroke: #A80036; stroke-width: 1.0;"/><text fill="#000000" font-family="sans-serif" font-size="13" lengthAdjust="spacingAndGlyphs" textLength="34" x="281.4398" y="88.785">many</text><text fill="#000000" font-family="sans-serif" font-size="13" lengthAdjust="spacingAndGlyphs" textLength="8" x="183.9613" y="130.3488">1</text><!--MD5=[b54d43475b81c45b712aa89fbfa98036]
@startuml

WeatherData .up.|> ISubject

CurrentConditionsDisplay .up.|> IObserver
StatisticsDisplay .up.|> IObserver
ThirdPartyDisplay .up.|> IObserver

IObserver "many" -up-o "1" ISubject

interface ISubject {
    + void RegisterObserver()
    + void RemoveObserver()
    + void NotifyObservers()
}

class WeatherData {
    - List<IObserver> observers
    - float temperature
    - float humidity
    - float pressure
    + void RegisterObserver()
    + void RemoveObserver()
    + void NotifyObservers()
    - float _GetTemperature()
    - float _GetHumidity()
    - float _GetPressure()
    + void MeasurementsChanged()
}

interface IObserver {
    + void Update(Object obj)
}

class CurrentConditionsDisplay {
    + void Update(Object obj)
    + void Display()
}

class StatisticsDisplay {
    + void Update(Object obj)
    + void Display()
}
@enduml

PlantUML version 1.2020.10(Sun May 17 18:35:57 JST 2020)
(GPL source distribution)
Java Runtime: Java(TM) SE Runtime Environment
JVM: Java HotSpot(TM) 64-Bit Server VM
Java Version: 11.0.1+13-LTS
Operating System: Mac OS X
Default Encoding: UTF-8
Language: ja
Country: JP
--></g></svg>