<?xml version="1.0" encoding="UTF-8" standalone="no"?><svg xmlns="http://www.w3.org/2000/svg" xmlns:xlink="http://www.w3.org/1999/xlink" contentScriptType="application/ecmascript" contentStyleType="text/css" height="291px" preserveAspectRatio="none" style="width:1522px;height:291px;" version="1.1" viewBox="0 0 1522 291" width="1522px" zoomAndPan="magnify"><defs><filter height="300%" id="f1checdvy9q4x5" width="300%" x="-1" y="-1"><feGaussianBlur result="blurOut" stdDeviation="2.0"/><feColorMatrix in="blurOut" result="blurOut2" type="matrix" values="0 0 0 0 0 0 0 0 0 0 0 0 0 0 0 0 0 0 .4 0"/><feOffset dx="4.0" dy="4.0" in="blurOut2" result="blurOut3"/><feBlend in="SourceGraphic" in2="blurOut3" mode="normal"/></filter></defs><g><!--MD5=[8c04977af96283d87084f008fe3725f3]
class NYPizzaStore--><rect fill="#FEFECE" filter="url(#f1checdvy9q4x5)" height="60.9551" id="NYPizzaStore" style="stroke: #A80036; stroke-width: 1.5;" width="184" x="784.5" y="220"/><ellipse cx="834.25" cy="236" fill="#ADD1B2" rx="11" ry="11" style="stroke: #A80036; stroke-width: 1.0;"/><path d="M836.7231,242.1431 Q836.1421,242.4419 835.5029,242.5913 Q834.8638,242.7407 834.1582,242.7407 Q831.6514,242.7407 830.3315,241.0889 Q829.0117,239.437 829.0117,236.3159 Q829.0117,233.1865 830.3315,231.5347 Q831.6514,229.8828 834.1582,229.8828 Q834.8638,229.8828 835.5112,230.0322 Q836.1587,230.1816 836.7231,230.4805 L836.7231,233.2031 Q836.0923,232.6221 835.4988,232.3523 Q834.9053,232.0825 834.2744,232.0825 Q832.9297,232.0825 832.2449,233.1492 Q831.5601,234.2158 831.5601,236.3159 Q831.5601,238.4077 832.2449,239.4744 Q832.9297,240.541 834.2744,240.541 Q834.9053,240.541 835.4988,240.2712 Q836.0923,240.0015 836.7231,239.4204 Z "/><text fill="#000000" font-family="sans-serif" font-size="12" lengthAdjust="spacingAndGlyphs" textLength="76" x="854.75" y="240.5352">NYPizzaStore</text><line style="stroke: #A80036; stroke-width: 1.5;" x1="785.5" x2="967.5" y1="252" y2="252"/><line style="stroke: #A80036; stroke-width: 1.5;" x1="785.5" x2="967.5" y1="260" y2="260"/><polygon fill="#FFFF44" points="795.5,266,799.5,270,795.5,274,791.5,270" style="stroke: #B38D22; stroke-width: 1.0;"/><text fill="#000000" font-family="sans-serif" font-size="11" lengthAdjust="spacingAndGlyphs" textLength="158" x="804.5" y="274.6348">Pizza CreatePizza(string type)</text><!--MD5=[26f5c61a402468dcc7e4daedc2568d01]
class PizzaStore--><rect fill="#FEFECE" filter="url(#f1checdvy9q4x5)" height="73.9102" id="PizzaStore" style="stroke: #A80036; stroke-width: 1.5;" width="184" x="893.5" y="47"/><ellipse cx="951.25" cy="63" fill="#A9DCDF" rx="11" ry="11" style="stroke: #A80036; stroke-width: 1.0;"/><path d="M951.3633,58.5981 L950.2095,63.6699 L952.5254,63.6699 Z M949.8691,56.3569 L952.8657,56.3569 L956.2109,68.75 L953.7622,68.75 L952.9985,65.687 L949.7197,65.687 L948.9727,68.75 L946.5239,68.75 Z "/><text fill="#000000" font-family="sans-serif" font-size="12" font-style="italic" lengthAdjust="spacingAndGlyphs" textLength="60" x="971.75" y="67.5352">PizzaStore</text><line style="stroke: #A80036; stroke-width: 1.5;" x1="894.5" x2="1076.5" y1="79" y2="79"/><line style="stroke: #A80036; stroke-width: 1.5;" x1="894.5" x2="1076.5" y1="87" y2="87"/><ellipse cx="904.5" cy="98" fill="#84BE84" rx="3" ry="3" style="stroke: #038048; stroke-width: 1.0;"/><text fill="#000000" font-family="sans-serif" font-size="11" lengthAdjust="spacingAndGlyphs" textLength="93" x="913.5" y="101.6348">void OrderPizza()</text><polygon fill="#FFFF44" points="904.5,105.9551,908.5,109.9551,904.5,113.9551,900.5,109.9551" style="stroke: #B38D22; stroke-width: 1.0;"/><text fill="#000000" font-family="sans-serif" font-size="11" font-style="italic" lengthAdjust="spacingAndGlyphs" textLength="158" x="913.5" y="114.5898">Pizza CreatePizza(string type)</text><!--MD5=[7dfaa3cdae4bc038d1f67fa8678eb5d0]
class ChicagoPizzaStore--><rect fill="#FEFECE" filter="url(#f1checdvy9q4x5)" height="60.9551" id="ChicagoPizzaStore" style="stroke: #A80036; stroke-width: 1.5;" width="184" x="1003.5" y="220"/><ellipse cx="1039.65" cy="236" fill="#ADD1B2" rx="11" ry="11" style="stroke: #A80036; stroke-width: 1.0;"/><path d="M1042.1231,242.1431 Q1041.5421,242.4419 1040.9029,242.5913 Q1040.2638,242.7407 1039.5582,242.7407 Q1037.0514,242.7407 1035.7315,241.0889 Q1034.4117,239.437 1034.4117,236.3159 Q1034.4117,233.1865 1035.7315,231.5347 Q1037.0514,229.8828 1039.5582,229.8828 Q1040.2638,229.8828 1040.9112,230.0322 Q1041.5587,230.1816 1042.1231,230.4805 L1042.1231,233.2031 Q1041.4923,232.6221 1040.8988,232.3523 Q1040.3053,232.0825 1039.6744,232.0825 Q1038.3297,232.0825 1037.6449,233.1492 Q1036.9601,234.2158 1036.9601,236.3159 Q1036.9601,238.4077 1037.6449,239.4744 Q1038.3297,240.541 1039.6744,240.541 Q1040.3053,240.541 1040.8988,240.2712 Q1041.4923,240.0015 1042.1231,239.4204 Z "/><text fill="#000000" font-family="sans-serif" font-size="12" lengthAdjust="spacingAndGlyphs" textLength="105" x="1058.35" y="240.5352">ChicagoPizzaStore</text><line style="stroke: #A80036; stroke-width: 1.5;" x1="1004.5" x2="1186.5" y1="252" y2="252"/><line style="stroke: #A80036; stroke-width: 1.5;" x1="1004.5" x2="1186.5" y1="260" y2="260"/><polygon fill="#FFFF44" points="1014.5,266,1018.5,270,1014.5,274,1010.5,270" style="stroke: #B38D22; stroke-width: 1.0;"/><text fill="#000000" font-family="sans-serif" font-size="11" lengthAdjust="spacingAndGlyphs" textLength="158" x="1023.5" y="274.6348">Pizza CreatePizza(string type)</text><!--MD5=[466c7a54d14799a3d082976584b7eea7]
class NYStyleCheesePizza--><rect fill="#FEFECE" filter="url(#f1checdvy9q4x5)" height="48" id="NYStyleCheesePizza" style="stroke: #A80036; stroke-width: 1.5;" width="147" x="6" y="226.5"/><ellipse cx="21" cy="242.5" fill="#ADD1B2" rx="11" ry="11" style="stroke: #A80036; stroke-width: 1.0;"/><path d="M23.4731,248.6431 Q22.8921,248.9419 22.2529,249.0913 Q21.6138,249.2407 20.9082,249.2407 Q18.4014,249.2407 17.0815,247.5889 Q15.7617,245.937 15.7617,242.8159 Q15.7617,239.6865 17.0815,238.0347 Q18.4014,236.3828 20.9082,236.3828 Q21.6138,236.3828 22.2612,236.5322 Q22.9087,236.6816 23.4731,236.9805 L23.4731,239.7031 Q22.8423,239.1221 22.2488,238.8523 Q21.6553,238.5825 21.0244,238.5825 Q19.6797,238.5825 18.9949,239.6492 Q18.3101,240.7158 18.3101,242.8159 Q18.3101,244.9077 18.9949,245.9744 Q19.6797,247.041 21.0244,247.041 Q21.6553,247.041 22.2488,246.7712 Q22.8423,246.5015 23.4731,245.9204 Z "/><text fill="#000000" font-family="sans-serif" font-size="12" lengthAdjust="spacingAndGlyphs" textLength="115" x="35" y="247.0352">NYStyleCheesePizza</text><line style="stroke: #A80036; stroke-width: 1.5;" x1="7" x2="152" y1="258.5" y2="258.5"/><line style="stroke: #A80036; stroke-width: 1.5;" x1="7" x2="152" y1="266.5" y2="266.5"/><!--MD5=[5c5a2dd8ed299478ae091ad6bda6d6bd]
class Pizza--><rect fill="#FEFECE" filter="url(#f1checdvy9q4x5)" height="151.6406" id="Pizza" style="stroke: #A80036; stroke-width: 1.5;" width="149" x="283" y="8"/><ellipse cx="337.75" cy="24" fill="#A9DCDF" rx="11" ry="11" style="stroke: #A80036; stroke-width: 1.0;"/><path d="M337.8633,19.5981 L336.7095,24.6699 L339.0254,24.6699 Z M336.3691,17.3569 L339.3657,17.3569 L342.7109,29.75 L340.2622,29.75 L339.4985,26.687 L336.2197,26.687 L335.4727,29.75 L333.0239,29.75 Z "/><text fill="#000000" font-family="sans-serif" font-size="12" font-style="italic" lengthAdjust="spacingAndGlyphs" textLength="31" x="358.25" y="28.5352">Pizza</text><line style="stroke: #A80036; stroke-width: 1.5;" x1="284" x2="431" y1="40" y2="40"/><ellipse cx="294" cy="51" fill="none" rx="3" ry="3" style="stroke: #038048; stroke-width: 1.0;"/><text fill="#000000" font-family="sans-serif" font-size="11" lengthAdjust="spacingAndGlyphs" textLength="65" x="303" y="54.6348">string Name</text><ellipse cx="294" cy="63.9551" fill="none" rx="3" ry="3" style="stroke: #038048; stroke-width: 1.0;"/><text fill="#000000" font-family="sans-serif" font-size="11" lengthAdjust="spacingAndGlyphs" textLength="71" x="303" y="67.5898">string Dough</text><ellipse cx="294" cy="76.9102" fill="none" rx="3" ry="3" style="stroke: #038048; stroke-width: 1.0;"/><text fill="#000000" font-family="sans-serif" font-size="11" lengthAdjust="spacingAndGlyphs" textLength="66" x="303" y="80.5449">string Sauce</text><ellipse cx="294" cy="89.8652" fill="none" rx="3" ry="3" style="stroke: #038048; stroke-width: 1.0;"/><text fill="#000000" font-family="sans-serif" font-size="11" lengthAdjust="spacingAndGlyphs" textLength="123" x="303" y="93.5">List&lt;string&gt; Toppings</text><line style="stroke: #A80036; stroke-width: 1.5;" x1="284" x2="431" y1="99.8203" y2="99.8203"/><ellipse cx="294" cy="110.8203" fill="#84BE84" rx="3" ry="3" style="stroke: #038048; stroke-width: 1.0;"/><text fill="#000000" font-family="sans-serif" font-size="11" lengthAdjust="spacingAndGlyphs" textLength="75" x="303" y="114.4551">void Prepare()</text><ellipse cx="294" cy="123.7754" fill="#84BE84" rx="3" ry="3" style="stroke: #038048; stroke-width: 1.0;"/><text fill="#000000" font-family="sans-serif" font-size="11" lengthAdjust="spacingAndGlyphs" textLength="58" x="303" y="127.4102">void Bake()</text><ellipse cx="294" cy="136.7305" fill="#84BE84" rx="3" ry="3" style="stroke: #038048; stroke-width: 1.0;"/><text fill="#000000" font-family="sans-serif" font-size="11" lengthAdjust="spacingAndGlyphs" textLength="53" x="303" y="140.3652">void Cut()</text><ellipse cx="294" cy="149.6855" fill="#84BE84" rx="3" ry="3" style="stroke: #038048; stroke-width: 1.0;"/><text fill="#000000" font-family="sans-serif" font-size="11" lengthAdjust="spacingAndGlyphs" textLength="54" x="303" y="153.3203">void Box()</text><!--MD5=[562f5ef4b76a8d56fa78efb46c8f3c05]
class NYStyleSimplePizza--><rect fill="#FEFECE" filter="url(#f1checdvy9q4x5)" height="48" id="NYStyleSimplePizza" style="stroke: #A80036; stroke-width: 1.5;" width="143" x="188" y="226.5"/><ellipse cx="203" cy="242.5" fill="#ADD1B2" rx="11" ry="11" style="stroke: #A80036; stroke-width: 1.0;"/><path d="M205.4731,248.6431 Q204.8921,248.9419 204.2529,249.0913 Q203.6138,249.2407 202.9082,249.2407 Q200.4014,249.2407 199.0815,247.5889 Q197.7617,245.937 197.7617,242.8159 Q197.7617,239.6865 199.0815,238.0347 Q200.4014,236.3828 202.9082,236.3828 Q203.6138,236.3828 204.2612,236.5322 Q204.9087,236.6816 205.4731,236.9805 L205.4731,239.7031 Q204.8423,239.1221 204.2488,238.8523 Q203.6553,238.5825 203.0244,238.5825 Q201.6797,238.5825 200.9949,239.6492 Q200.3101,240.7158 200.3101,242.8159 Q200.3101,244.9077 200.9949,245.9744 Q201.6797,247.041 203.0244,247.041 Q203.6553,247.041 204.2488,246.7712 Q204.8423,246.5015 205.4731,245.9204 Z "/><text fill="#000000" font-family="sans-serif" font-size="12" lengthAdjust="spacingAndGlyphs" textLength="111" x="217" y="247.0352">NYStyleSimplePizza</text><line style="stroke: #A80036; stroke-width: 1.5;" x1="189" x2="330" y1="258.5" y2="258.5"/><line style="stroke: #A80036; stroke-width: 1.5;" x1="189" x2="330" y1="266.5" y2="266.5"/><!--MD5=[196bfe110504d7625f5213f09b3256f5]
class ChicagoStyleCheesePizza--><rect fill="#FEFECE" filter="url(#f1checdvy9q4x5)" height="48" id="ChicagoStyleCheesePizza" style="stroke: #A80036; stroke-width: 1.5;" width="176" x="366.5" y="226.5"/><ellipse cx="381.5" cy="242.5" fill="#ADD1B2" rx="11" ry="11" style="stroke: #A80036; stroke-width: 1.0;"/><path d="M383.9731,248.6431 Q383.3921,248.9419 382.7529,249.0913 Q382.1138,249.2407 381.4082,249.2407 Q378.9014,249.2407 377.5815,247.5889 Q376.2617,245.937 376.2617,242.8159 Q376.2617,239.6865 377.5815,238.0347 Q378.9014,236.3828 381.4082,236.3828 Q382.1138,236.3828 382.7612,236.5322 Q383.4087,236.6816 383.9731,236.9805 L383.9731,239.7031 Q383.3423,239.1221 382.7488,238.8523 Q382.1553,238.5825 381.5244,238.5825 Q380.1797,238.5825 379.4949,239.6492 Q378.8101,240.7158 378.8101,242.8159 Q378.8101,244.9077 379.4949,245.9744 Q380.1797,247.041 381.5244,247.041 Q382.1553,247.041 382.7488,246.7712 Q383.3423,246.5015 383.9731,245.9204 Z "/><text fill="#000000" font-family="sans-serif" font-size="12" lengthAdjust="spacingAndGlyphs" textLength="144" x="395.5" y="247.0352">ChicagoStyleCheesePizza</text><line style="stroke: #A80036; stroke-width: 1.5;" x1="367.5" x2="541.5" y1="258.5" y2="258.5"/><line style="stroke: #A80036; stroke-width: 1.5;" x1="367.5" x2="541.5" y1="266.5" y2="266.5"/><!--MD5=[6c7ec3cc63373a6e28e71f2ee63ba53c]
class ChicagoStyleSimplePizza--><rect fill="#FEFECE" filter="url(#f1checdvy9q4x5)" height="48" id="ChicagoStyleSimplePizza" style="stroke: #A80036; stroke-width: 1.5;" width="172" x="577.5" y="226.5"/><ellipse cx="592.5" cy="242.5" fill="#ADD1B2" rx="11" ry="11" style="stroke: #A80036; stroke-width: 1.0;"/><path d="M594.9731,248.6431 Q594.3921,248.9419 593.7529,249.0913 Q593.1138,249.2407 592.4082,249.2407 Q589.9014,249.2407 588.5815,247.5889 Q587.2617,245.937 587.2617,242.8159 Q587.2617,239.6865 588.5815,238.0347 Q589.9014,236.3828 592.4082,236.3828 Q593.1138,236.3828 593.7612,236.5322 Q594.4087,236.6816 594.9731,236.9805 L594.9731,239.7031 Q594.3423,239.1221 593.7488,238.8523 Q593.1553,238.5825 592.5244,238.5825 Q591.1797,238.5825 590.4949,239.6492 Q589.8101,240.7158 589.8101,242.8159 Q589.8101,244.9077 590.4949,245.9744 Q591.1797,247.041 592.5244,247.041 Q593.1553,247.041 593.7488,246.7712 Q594.3423,246.5015 594.9731,245.9204 Z "/><text fill="#000000" font-family="sans-serif" font-size="12" lengthAdjust="spacingAndGlyphs" textLength="140" x="606.5" y="247.0352">ChicagoStyleSimplePizza</text><line style="stroke: #A80036; stroke-width: 1.5;" x1="578.5" x2="748.5" y1="258.5" y2="258.5"/><line style="stroke: #A80036; stroke-width: 1.5;" x1="578.5" x2="748.5" y1="266.5" y2="266.5"/><path d="M1112.5,56 L1112.5,80 L1077.51,84 L1112.5,88 L1112.5,111.9316 A0,0 0 0 0 1112.5,111.9316 L1510.5,111.9316 A0,0 0 0 0 1510.5,111.9316 L1510.5,66 L1500.5,56 L1112.5,56 A0,0 0 0 0 1112.5,56 " fill="#FBFB77" filter="url(#f1checdvy9q4x5)" style="stroke: #A80036; stroke-width: 1.0;"/><path d="M1500.5,56 L1500.5,66 L1510.5,66 L1500.5,56 " fill="#FBFB77" style="stroke: #A80036; stroke-width: 1.0;"/><text fill="#000000" font-family="sans-serif" font-size="13" lengthAdjust="spacingAndGlyphs" textLength="377" x="1118.5" y="73.5684">ピザを生成するFactory Method「CreatePizza」を定義している</text><text fill="#000000" font-family="sans-serif" font-size="13" lengthAdjust="spacingAndGlyphs" textLength="377" x="1118.5" y="88.8789">実装はサブクラス側で定義されており、利用するアルゴリズムは</text><text fill="#000000" font-family="sans-serif" font-size="13" lengthAdjust="spacingAndGlyphs" textLength="273" x="1118.5" y="104.1895">スーパークラスのorderPizza内で呼び出される</text><!--MD5=[3b945ed581789e1a054b639c7e4c6f90]
reverse link PizzaStore to NYPizzaStore--><path d="M950.35,138.05 C932.4,165.14 911.24,197.08 896.18,219.8 " fill="none" id="PizzaStore&lt;-NYPizzaStore" style="stroke: #A80036; stroke-width: 1.0;"/><polygon fill="none" points="944.7,133.91,961.58,121.1,956.37,141.64,944.7,133.91" style="stroke: #A80036; stroke-width: 1.0;"/><!--MD5=[85f8c6a5276f9ec62453b4c43cc67357]
reverse link PizzaStore to ChicagoPizzaStore--><path d="M1020.98,138.05 C1039.09,165.14 1060.44,197.08 1075.64,219.8 " fill="none" id="PizzaStore&lt;-ChicagoPizzaStore" style="stroke: #A80036; stroke-width: 1.0;"/><polygon fill="none" points="1014.94,141.62,1009.64,121.1,1026.58,133.83,1014.94,141.62" style="stroke: #A80036; stroke-width: 1.0;"/><!--MD5=[0efd7702098c42da1bce89da961e9029]
reverse link Pizza to NYStyleCheesePizza--><path d="M265.41,139.49 C215.51,169.02 156.46,203.96 118.52,226.41 " fill="none" id="Pizza&lt;-NYStyleCheesePizza" style="stroke: #A80036; stroke-width: 1.0;"/><polygon fill="none" points="261.86,133.46,282.64,129.3,268.99,145.51,261.86,133.46" style="stroke: #A80036; stroke-width: 1.0;"/><!--MD5=[0a7c2788826f1affbbd3c226531a19e9]
reverse link Pizza to NYStyleSimplePizza--><path d="M302.54,177.26 C291.65,195.53 281.16,213.14 273.27,226.39 " fill="none" id="Pizza&lt;-NYStyleSimplePizza" style="stroke: #A80036; stroke-width: 1.0;"/><polygon fill="none" points="296.55,173.63,312.8,160.03,308.58,180.79,296.55,173.63" style="stroke: #A80036; stroke-width: 1.0;"/><!--MD5=[d87649b01ab7b35444e71ab5454722f6]
reverse link Pizza to ChicagoStyleCheesePizza--><path d="M411.9,177.26 C422.68,195.53 433.06,213.14 440.87,226.39 " fill="none" id="Pizza&lt;-ChicagoStyleCheesePizza" style="stroke: #A80036; stroke-width: 1.0;"/><polygon fill="none" points="405.87,180.81,401.74,160.03,417.93,173.7,405.87,180.81" style="stroke: #A80036; stroke-width: 1.0;"/><!--MD5=[0af5481754e3631aec8eb7f42a1c1c08]
reverse link Pizza to ChicagoStyleSimplePizza--><path d="M450.23,134.85 C506.85,165.29 576.57,202.77 620.54,226.41 " fill="none" id="Pizza&lt;-ChicagoStyleSimplePizza" style="stroke: #A80036; stroke-width: 1.0;"/><polygon fill="none" points="446.66,140.88,432.36,125.24,453.29,128.55,446.66,140.88" style="stroke: #A80036; stroke-width: 1.0;"/><!--MD5=[65738640503bc0973c2e7108a064f890]
@startuml

NYPizzaStore -up-|> PizzaStore
ChicagoPizzaStore -up-|> PizzaStore

NYStyleCheesePizza -up-|> Pizza
NYStyleSimplePizza -up-|> Pizza
ChicagoStyleCheesePizza -up-|> Pizza
ChicagoStyleSimplePizza -up-|> Pizza

abstract class PizzaStore {
    + void OrderPizza()
    # {abstract} Pizza CreatePizza(string type)
}

class NYPizzaStore {
    # Pizza CreatePizza(string type)
}

class ChicagoPizzaStore {
    # Pizza CreatePizza(string type)
}

abstract class Pizza {
    + string Name
    + string Dough
    + string Sauce
    + List<string> Toppings
    + void Prepare()
    + void Bake()
    + void Cut()
    + void Box()
}

class NYStyleCheesePizza {
}

class NYStyleSimplePizza {
}

class ChicagoStyleCheesePizza {
}

class ChicagoStyleSimplePizza{
}

note right of PizzaStore
    ピザを生成するFactory Method「CreatePizza」を定義している
    実装はサブクラス側で定義されており、利用するアルゴリズムは
    スーパークラスのorderPizza内で呼び出される
end note
@enduml

PlantUML version 1.2020.10(Sun May 17 18:35:57 JST 2020)
(GPL source distribution)
Java Runtime: Java(TM) SE Runtime Environment
JVM: Java HotSpot(TM) 64-Bit Server VM
Java Version: 11.0.1+13-LTS
Operating System: Mac OS X
Default Encoding: UTF-8
Language: ja
Country: JP
--></g></svg>