<?xml version="1.0" encoding="UTF-8" standalone="no"?><svg xmlns="http://www.w3.org/2000/svg" xmlns:xlink="http://www.w3.org/1999/xlink" contentScriptType="application/ecmascript" contentStyleType="text/css" height="494px" preserveAspectRatio="none" style="width:460px;height:494px;" version="1.1" viewBox="0 0 460 494" width="460px" zoomAndPan="magnify"><defs><filter height="300%" id="fscyp3saeplni" width="300%" x="-1" y="-1"><feGaussianBlur result="blurOut" stdDeviation="2.0"/><feColorMatrix in="blurOut" result="blurOut2" type="matrix" values="0 0 0 0 0 0 0 0 0 0 0 0 0 0 0 0 0 0 .4 0"/><feOffset dx="4.0" dy="4.0" in="blurOut2" result="blurOut3"/><feBlend in="SourceGraphic" in2="blurOut3" mode="normal"/></filter></defs><g><!--MD5=[6b7aa2b48f699f84e43038c6d40cb339]
class MallarDuck--><rect fill="#FEFECE" filter="url(#fscyp3saeplni)" height="48" id="MallarDuck" style="stroke: #A80036; stroke-width: 1.5;" width="96" x="127" y="423"/><ellipse cx="142" cy="439" fill="#ADD1B2" rx="11" ry="11" style="stroke: #A80036; stroke-width: 1.0;"/><path d="M144.4731,445.1431 Q143.8921,445.4419 143.2529,445.5913 Q142.6138,445.7407 141.9082,445.7407 Q139.4014,445.7407 138.0815,444.0889 Q136.7617,442.437 136.7617,439.3159 Q136.7617,436.1865 138.0815,434.5347 Q139.4014,432.8828 141.9082,432.8828 Q142.6138,432.8828 143.2612,433.0322 Q143.9087,433.1816 144.4731,433.4805 L144.4731,436.2031 Q143.8423,435.6221 143.2488,435.3523 Q142.6553,435.0825 142.0244,435.0825 Q140.6797,435.0825 139.9949,436.1492 Q139.3101,437.2158 139.3101,439.3159 Q139.3101,441.4077 139.9949,442.4744 Q140.6797,443.541 142.0244,443.541 Q142.6553,443.541 143.2488,443.2712 Q143.8423,443.0015 144.4731,442.4204 Z "/><text fill="#000000" font-family="sans-serif" font-size="12" lengthAdjust="spacingAndGlyphs" textLength="64" x="156" y="443.5352">MallarDuck</text><line style="stroke: #A80036; stroke-width: 1.5;" x1="128" x2="222" y1="455" y2="455"/><line style="stroke: #A80036; stroke-width: 1.5;" x1="128" x2="222" y1="463" y2="463"/><!--MD5=[00132b7638861d67465ee5f930e47a63]
class IDuck--><rect fill="#FEFECE" filter="url(#fscyp3saeplni)" height="73.9102" id="IDuck" style="stroke: #A80036; stroke-width: 1.5;" width="94" x="172" y="276"/><ellipse cx="200.5" cy="292" fill="#B4A7E5" rx="11" ry="11" style="stroke: #A80036; stroke-width: 1.0;"/><path d="M196.9277,288.2651 L196.9277,286.1069 L204.3071,286.1069 L204.3071,288.2651 L201.8418,288.2651 L201.8418,296.3418 L204.3071,296.3418 L204.3071,298.5 L196.9277,298.5 L196.9277,296.3418 L199.3931,296.3418 L199.3931,288.2651 Z "/><text fill="#000000" font-family="sans-serif" font-size="12" font-style="italic" lengthAdjust="spacingAndGlyphs" textLength="32" x="217.5" y="296.5352">IDuck</text><line style="stroke: #A80036; stroke-width: 1.5;" x1="173" x2="265" y1="308" y2="308"/><line style="stroke: #A80036; stroke-width: 1.5;" x1="173" x2="265" y1="316" y2="316"/><ellipse cx="183" cy="327" fill="#84BE84" rx="3" ry="3" style="stroke: #038048; stroke-width: 1.0;"/><text fill="#000000" font-family="sans-serif" font-size="11" lengthAdjust="spacingAndGlyphs" textLength="68" x="192" y="330.6348">void Quack()</text><ellipse cx="183" cy="339.9551" fill="#84BE84" rx="3" ry="3" style="stroke: #038048; stroke-width: 1.0;"/><text fill="#000000" font-family="sans-serif" font-size="11" lengthAdjust="spacingAndGlyphs" textLength="49" x="192" y="343.5898">void Fly()</text><!--MD5=[38e07a88cd9440255bbd8837f7d6cd2e]
class WildTurkey--><rect fill="#FEFECE" filter="url(#fscyp3saeplni)" height="48" id="WildTurkey" style="stroke: #A80036; stroke-width: 1.5;" width="96" x="6" y="155"/><ellipse cx="21" cy="171" fill="#ADD1B2" rx="11" ry="11" style="stroke: #A80036; stroke-width: 1.0;"/><path d="M23.4731,177.1431 Q22.8921,177.4419 22.2529,177.5913 Q21.6138,177.7407 20.9082,177.7407 Q18.4014,177.7407 17.0815,176.0889 Q15.7617,174.437 15.7617,171.3159 Q15.7617,168.1865 17.0815,166.5347 Q18.4014,164.8828 20.9082,164.8828 Q21.6138,164.8828 22.2612,165.0322 Q22.9087,165.1816 23.4731,165.4805 L23.4731,168.2031 Q22.8423,167.6221 22.2488,167.3523 Q21.6553,167.0825 21.0244,167.0825 Q19.6797,167.0825 18.9949,168.1492 Q18.3101,169.2158 18.3101,171.3159 Q18.3101,173.4077 18.9949,174.4744 Q19.6797,175.541 21.0244,175.541 Q21.6553,175.541 22.2488,175.2712 Q22.8423,175.0015 23.4731,174.4204 Z "/><text fill="#000000" font-family="sans-serif" font-size="12" lengthAdjust="spacingAndGlyphs" textLength="64" x="35" y="175.5352">WildTurkey</text><line style="stroke: #A80036; stroke-width: 1.5;" x1="7" x2="101" y1="187" y2="187"/><line style="stroke: #A80036; stroke-width: 1.5;" x1="7" x2="101" y1="195" y2="195"/><!--MD5=[5df49c4388236192430b445e203c3737]
class ITurkey--><rect fill="#FEFECE" filter="url(#fscyp3saeplni)" height="73.9102" id="ITurkey" style="stroke: #A80036; stroke-width: 1.5;" width="98" x="170" y="8"/><ellipse cx="195.35" cy="24" fill="#B4A7E5" rx="11" ry="11" style="stroke: #A80036; stroke-width: 1.0;"/><path d="M191.7777,20.2651 L191.7777,18.1069 L199.1571,18.1069 L199.1571,20.2651 L196.6918,20.2651 L196.6918,28.3418 L199.1571,28.3418 L199.1571,30.5 L191.7777,30.5 L191.7777,28.3418 L194.2431,28.3418 L194.2431,20.2651 Z "/><text fill="#000000" font-family="sans-serif" font-size="12" font-style="italic" lengthAdjust="spacingAndGlyphs" textLength="43" x="211.65" y="28.5352">ITurkey</text><line style="stroke: #A80036; stroke-width: 1.5;" x1="171" x2="267" y1="40" y2="40"/><line style="stroke: #A80036; stroke-width: 1.5;" x1="171" x2="267" y1="48" y2="48"/><ellipse cx="181" cy="59" fill="#84BE84" rx="3" ry="3" style="stroke: #038048; stroke-width: 1.0;"/><text fill="#000000" font-family="sans-serif" font-size="11" lengthAdjust="spacingAndGlyphs" textLength="72" x="190" y="62.6348">void Gobble()</text><ellipse cx="181" cy="71.9551" fill="#84BE84" rx="3" ry="3" style="stroke: #038048; stroke-width: 1.0;"/><text fill="#000000" font-family="sans-serif" font-size="11" lengthAdjust="spacingAndGlyphs" textLength="49" x="190" y="75.5898">void Fly()</text><!--MD5=[f6d6628275d2be472261877654ca6f40]
class TurkeyAdapter--><rect fill="#FEFECE" filter="url(#fscyp3saeplni)" height="73.9102" id="TurkeyAdapter" style="stroke: #A80036; stroke-width: 1.5;" width="191" x="258.5" y="410"/><ellipse cx="306.25" cy="426" fill="#ADD1B2" rx="11" ry="11" style="stroke: #A80036; stroke-width: 1.0;"/><path d="M308.7231,432.1431 Q308.1421,432.4419 307.5029,432.5913 Q306.8638,432.7407 306.1582,432.7407 Q303.6514,432.7407 302.3315,431.0889 Q301.0117,429.437 301.0117,426.3159 Q301.0117,423.1865 302.3315,421.5347 Q303.6514,419.8828 306.1582,419.8828 Q306.8638,419.8828 307.5112,420.0322 Q308.1587,420.1816 308.7231,420.4805 L308.7231,423.2031 Q308.0923,422.6221 307.4988,422.3523 Q306.9053,422.0825 306.2744,422.0825 Q304.9297,422.0825 304.2449,423.1492 Q303.5601,424.2158 303.5601,426.3159 Q303.5601,428.4077 304.2449,429.4744 Q304.9297,430.541 306.2744,430.541 Q306.9053,430.541 307.4988,430.2712 Q308.0923,430.0015 308.7231,429.4204 Z "/><text fill="#000000" font-family="sans-serif" font-size="12" lengthAdjust="spacingAndGlyphs" textLength="87" x="326.75" y="430.5352">TurkeyAdapter</text><line style="stroke: #A80036; stroke-width: 1.5;" x1="259.5" x2="448.5" y1="442" y2="442"/><rect fill="none" height="6" style="stroke: #C82930; stroke-width: 1.0;" width="6" x="266.5" y="450"/><text fill="#000000" font-family="sans-serif" font-size="11" lengthAdjust="spacingAndGlyphs" textLength="77" x="278.5" y="456.6348">ITurkey turkey</text><line style="stroke: #A80036; stroke-width: 1.5;" x1="259.5" x2="448.5" y1="462.9551" y2="462.9551"/><ellipse cx="269.5" cy="473.9551" fill="#84BE84" rx="3" ry="3" style="stroke: #038048; stroke-width: 1.0;"/><text fill="#000000" font-family="sans-serif" font-size="11" lengthAdjust="spacingAndGlyphs" textLength="165" x="278.5" y="477.5898">TurkeyAdapter(ITurkey turkey)</text><!--MD5=[2cfd7b2d5c09e0614f2109d6aab5f940]
class DuckAdapter--><rect fill="#FEFECE" filter="url(#fscyp3saeplni)" height="73.9102" id="DuckAdapter" style="stroke: #A80036; stroke-width: 1.5;" width="163" x="137.5" y="142"/><ellipse cx="177.25" cy="158" fill="#ADD1B2" rx="11" ry="11" style="stroke: #A80036; stroke-width: 1.0;"/><path d="M179.7231,164.1431 Q179.1421,164.4419 178.5029,164.5913 Q177.8638,164.7407 177.1582,164.7407 Q174.6514,164.7407 173.3315,163.0889 Q172.0117,161.437 172.0117,158.3159 Q172.0117,155.1865 173.3315,153.5347 Q174.6514,151.8828 177.1582,151.8828 Q177.8638,151.8828 178.5112,152.0322 Q179.1587,152.1816 179.7231,152.4805 L179.7231,155.2031 Q179.0923,154.6221 178.4988,154.3523 Q177.9053,154.0825 177.2744,154.0825 Q175.9297,154.0825 175.2449,155.1492 Q174.5601,156.2158 174.5601,158.3159 Q174.5601,160.4077 175.2449,161.4744 Q175.9297,162.541 177.2744,162.541 Q177.9053,162.541 178.4988,162.2712 Q179.0923,162.0015 179.7231,161.4204 Z "/><text fill="#000000" font-family="sans-serif" font-size="12" lengthAdjust="spacingAndGlyphs" textLength="76" x="196.75" y="162.5352">DuckAdapter</text><line style="stroke: #A80036; stroke-width: 1.5;" x1="138.5" x2="299.5" y1="174" y2="174"/><rect fill="none" height="6" style="stroke: #C82930; stroke-width: 1.0;" width="6" x="145.5" y="182"/><text fill="#000000" font-family="sans-serif" font-size="11" lengthAdjust="spacingAndGlyphs" textLength="59" x="157.5" y="188.6348">IDuck duck</text><line style="stroke: #A80036; stroke-width: 1.5;" x1="138.5" x2="299.5" y1="194.9551" y2="194.9551"/><ellipse cx="148.5" cy="205.9551" fill="#84BE84" rx="3" ry="3" style="stroke: #038048; stroke-width: 1.0;"/><text fill="#000000" font-family="sans-serif" font-size="11" lengthAdjust="spacingAndGlyphs" textLength="137" x="157.5" y="209.5898">DuckAdapter(IDuck duck)</text><!--MD5=[35bdba144f36cc3c8fb406898807314e]
reverse link IDuck to MallarDuck--><path d="M200.57,369.3 C194.31,388.06 187.66,408.01 182.71,422.86 " fill="none" id="IDuck&lt;-MallarDuck" style="stroke: #A80036; stroke-width: 1.0; stroke-dasharray: 7.0,7.0;"/><polygon fill="none" points="194.01,366.83,206.98,350.07,207.29,371.26,194.01,366.83" style="stroke: #A80036; stroke-width: 1.0;"/><!--MD5=[b7fbf135d547f732cf44ce1036e18f3d]
reverse link ITurkey to WildTurkey--><path d="M158,94.8 C132.32,115.35 103.65,138.28 82.93,154.86 " fill="none" id="ITurkey&lt;-WildTurkey" style="stroke: #A80036; stroke-width: 1.0; stroke-dasharray: 7.0,7.0;"/><polygon fill="none" points="153.92,89.1,173.91,82.07,162.67,100.03,153.92,89.1" style="stroke: #A80036; stroke-width: 1.0;"/><!--MD5=[f0ef875b1b48fe1772d3cbd6419ccb2a]
reverse link IDuck to TurkeyAdapter--><path d="M270.34,364.2 C285.92,379.43 302.72,395.86 317.16,409.97 " fill="none" id="IDuck&lt;-TurkeyAdapter" style="stroke: #A80036; stroke-width: 1.0; stroke-dasharray: 7.0,7.0;"/><polygon fill="none" points="265.3,369.06,255.89,350.07,275.08,359.05,265.3,369.06" style="stroke: #A80036; stroke-width: 1.0;"/><!--MD5=[fba7251a82757fca85650a25a8b53f0f]
reverse link ITurkey to DuckAdapter--><path d="M219,102.38 C219,115.8 219,129.76 219,141.97 " fill="none" id="ITurkey&lt;-DuckAdapter" style="stroke: #A80036; stroke-width: 1.0; stroke-dasharray: 7.0,7.0;"/><polygon fill="none" points="212,102.07,219,82.07,226,102.07,212,102.07" style="stroke: #A80036; stroke-width: 1.0;"/><!--MD5=[145b47567578a12684062c773aa2f68e]
link TurkeyAdapter to ITurkey--><path d="M357.26,409.64 C360.98,350.29 361.71,230.37 318,142 C307.29,120.35 289.65,100.86 272.21,85.19 " fill="none" id="TurkeyAdapter-&gt;ITurkey" style="stroke: #A80036; stroke-width: 1.0; stroke-dasharray: 7.0,7.0;"/><polygon fill="#A80036" points="268.25,81.69,272.3532,90.6434,271.9996,84.9976,277.6454,84.6441,268.25,81.69" style="stroke: #A80036; stroke-width: 1.0;"/><!--MD5=[09a3823ffea220cd7d243b40f12677c1]
link DuckAdapter to IDuck--><path d="M219,216.07 C219,232.95 219,253.14 219,270.64 " fill="none" id="DuckAdapter-&gt;IDuck" style="stroke: #A80036; stroke-width: 1.0; stroke-dasharray: 7.0,7.0;"/><polygon fill="#A80036" points="219,275.97,223,266.97,219,270.97,215,266.97,219,275.97" style="stroke: #A80036; stroke-width: 1.0;"/><!--MD5=[7d99bfa708884ed3ac85f140cd39737e]
@startuml

MallarDuck .up.|> IDuck
WildTurkey .up.|> ITurkey

TurkeyAdapter .up.|> IDuck
DuckAdapter .up.|> ITurkey

TurkeyAdapter ..> ITurkey
DuckAdapter ..> IDuck

interface IDuck {
    + void Quack()
    + void Fly()
}

interface ITurkey {
    + void Gobble()
    + void Fly()
}

class MallarDuck {
}

class WildTurkey {
}

class TurkeyAdapter {
    - ITurkey turkey
    + TurkeyAdapter(ITurkey turkey)
}

class DuckAdapter {
    - IDuck duck
    + DuckAdapter(IDuck duck)
}

@enduml

PlantUML version 1.2020.10(Sun May 17 18:35:57 JST 2020)
(GPL source distribution)
Java Runtime: Java(TM) SE Runtime Environment
JVM: Java HotSpot(TM) 64-Bit Server VM
Java Version: 11.0.1+13-LTS
Operating System: Mac OS X
Default Encoding: UTF-8
Language: ja
Country: JP
--></g></svg>