<?xml version="1.0" encoding="UTF-8" standalone="no"?><svg xmlns="http://www.w3.org/2000/svg" xmlns:xlink="http://www.w3.org/1999/xlink" contentScriptType="application/ecmascript" contentStyleType="text/css" height="283px" preserveAspectRatio="none" style="width:808px;height:283px;" version="1.1" viewBox="0 0 808 283" width="808px" zoomAndPan="magnify"><defs><filter height="300%" id="fbqvqv9e2l4kf" width="300%" x="-1" y="-1"><feGaussianBlur result="blurOut" stdDeviation="2.0"/><feColorMatrix in="blurOut" result="blurOut2" type="matrix" values="0 0 0 0 0 0 0 0 0 0 0 0 0 0 0 0 0 0 .4 0"/><feOffset dx="4.0" dy="4.0" in="blurOut2" result="blurOut3"/><feBlend in="SourceGraphic" in2="blurOut3" mode="normal"/></filter></defs><g><!--MD5=[512c732d4257a1004d23ecddbcc294c2]
cluster SubSystems--><polygon fill="#FFFFFF" filter="url(#fbqvqv9e2l4kf)" points="322,146,414,146,421,168.4883,786,168.4883,786,271,322,271,322,146" style="stroke: #000000; stroke-width: 1.5;"/><line style="stroke: #000000; stroke-width: 1.5;" x1="322" x2="421" y1="168.4883" y2="168.4883"/><text fill="#000000" font-family="sans-serif" font-size="14" font-weight="bold" lengthAdjust="spacingAndGlyphs" textLength="86" x="326" y="161.5352">SubSystems</text><!--MD5=[bf00ba7bda02d3d7e5de85ec21a2e4aa]
class SubSystems.HeadPhone--><rect fill="#FEFECE" filter="url(#fbqvqv9e2l4kf)" height="73.9102" id="SubSystems.HeadPhone" style="stroke: #A80036; stroke-width: 1.5;" width="108" x="662" y="181"/><ellipse cx="681.5" cy="197" fill="#ADD1B2" rx="11" ry="11" style="stroke: #A80036; stroke-width: 1.0;"/><path d="M683.9731,203.1431 Q683.3921,203.4419 682.7529,203.5913 Q682.1138,203.7407 681.4082,203.7407 Q678.9014,203.7407 677.5815,202.0889 Q676.2617,200.437 676.2617,197.3159 Q676.2617,194.1865 677.5815,192.5347 Q678.9014,190.8828 681.4082,190.8828 Q682.1138,190.8828 682.7612,191.0322 Q683.4087,191.1816 683.9731,191.4805 L683.9731,194.2031 Q683.3423,193.6221 682.7488,193.3523 Q682.1553,193.0825 681.5244,193.0825 Q680.1797,193.0825 679.4949,194.1492 Q678.8101,195.2158 678.8101,197.3159 Q678.8101,199.4077 679.4949,200.4744 Q680.1797,201.541 681.5244,201.541 Q682.1553,201.541 682.7488,201.2712 Q683.3423,201.0015 683.9731,200.4204 Z "/><text fill="#000000" font-family="sans-serif" font-size="12" lengthAdjust="spacingAndGlyphs" textLength="66" x="696.5" y="201.5352">HeadPhone</text><line style="stroke: #A80036; stroke-width: 1.5;" x1="663" x2="769" y1="213" y2="213"/><line style="stroke: #A80036; stroke-width: 1.5;" x1="663" x2="769" y1="221" y2="221"/><ellipse cx="673" cy="232" fill="#84BE84" rx="3" ry="3" style="stroke: #038048; stroke-width: 1.0;"/><text fill="#000000" font-family="sans-serif" font-size="11" lengthAdjust="spacingAndGlyphs" textLength="82" x="682" y="235.6348">void PowerOn()</text><ellipse cx="673" cy="244.9551" fill="#84BE84" rx="3" ry="3" style="stroke: #038048; stroke-width: 1.0;"/><text fill="#000000" font-family="sans-serif" font-size="11" lengthAdjust="spacingAndGlyphs" textLength="79" x="682" y="248.5898">void Connect()</text><!--MD5=[fd5de94cee231724c3bf1a1fa06a3898]
class SubSystems.YouTube--><rect fill="#FEFECE" filter="url(#fbqvqv9e2l4kf)" height="73.9102" id="SubSystems.YouTube" style="stroke: #A80036; stroke-width: 1.5;" width="145" x="481.5" y="181"/><ellipse cx="524.4" cy="197" fill="#ADD1B2" rx="11" ry="11" style="stroke: #A80036; stroke-width: 1.0;"/><path d="M526.8731,203.1431 Q526.2921,203.4419 525.6529,203.5913 Q525.0138,203.7407 524.3082,203.7407 Q521.8014,203.7407 520.4815,202.0889 Q519.1617,200.437 519.1617,197.3159 Q519.1617,194.1865 520.4815,192.5347 Q521.8014,190.8828 524.3082,190.8828 Q525.0138,190.8828 525.6612,191.0322 Q526.3087,191.1816 526.8731,191.4805 L526.8731,194.2031 Q526.2423,193.6221 525.6488,193.3523 Q525.0553,193.0825 524.4244,193.0825 Q523.0797,193.0825 522.3949,194.1492 Q521.7101,195.2158 521.7101,197.3159 Q521.7101,199.4077 522.3949,200.4744 Q523.0797,201.541 524.4244,201.541 Q525.0553,201.541 525.6488,201.2712 Q526.2423,201.0015 526.8731,200.4204 Z "/><text fill="#000000" font-family="sans-serif" font-size="12" lengthAdjust="spacingAndGlyphs" textLength="51" x="544.6" y="201.5352">YouTube</text><line style="stroke: #A80036; stroke-width: 1.5;" x1="482.5" x2="625.5" y1="213" y2="213"/><line style="stroke: #A80036; stroke-width: 1.5;" x1="482.5" x2="625.5" y1="221" y2="221"/><ellipse cx="492.5" cy="232" fill="#84BE84" rx="3" ry="3" style="stroke: #038048; stroke-width: 1.0;"/><text fill="#000000" font-family="sans-serif" font-size="11" lengthAdjust="spacingAndGlyphs" textLength="119" x="501.5" y="235.6348">void SearchVideoList()</text><ellipse cx="492.5" cy="244.9551" fill="#84BE84" rx="3" ry="3" style="stroke: #038048; stroke-width: 1.0;"/><text fill="#000000" font-family="sans-serif" font-size="11" lengthAdjust="spacingAndGlyphs" textLength="88" x="501.5" y="248.5898">void SelectVide()</text><!--MD5=[b262fee8291e6d83e871ffefcadb9ed7]
class SubSystems.Computer--><rect fill="#FEFECE" filter="url(#fbqvqv9e2l4kf)" height="73.9102" id="SubSystems.Computer" style="stroke: #A80036; stroke-width: 1.5;" width="108" x="338" y="181"/><ellipse cx="361.55" cy="197" fill="#ADD1B2" rx="11" ry="11" style="stroke: #A80036; stroke-width: 1.0;"/><path d="M364.0231,203.1431 Q363.4421,203.4419 362.8029,203.5913 Q362.1638,203.7407 361.4582,203.7407 Q358.9514,203.7407 357.6315,202.0889 Q356.3117,200.437 356.3117,197.3159 Q356.3117,194.1865 357.6315,192.5347 Q358.9514,190.8828 361.4582,190.8828 Q362.1638,190.8828 362.8112,191.0322 Q363.4587,191.1816 364.0231,191.4805 L364.0231,194.2031 Q363.3923,193.6221 362.7988,193.3523 Q362.2053,193.0825 361.5744,193.0825 Q360.2297,193.0825 359.5449,194.1492 Q358.8601,195.2158 358.8601,197.3159 Q358.8601,199.4077 359.5449,200.4744 Q360.2297,201.541 361.5744,201.541 Q362.2053,201.541 362.7988,201.2712 Q363.3923,201.0015 364.0231,200.4204 Z "/><text fill="#000000" font-family="sans-serif" font-size="12" lengthAdjust="spacingAndGlyphs" textLength="57" x="377.45" y="201.5352">Computer</text><line style="stroke: #A80036; stroke-width: 1.5;" x1="339" x2="445" y1="213" y2="213"/><line style="stroke: #A80036; stroke-width: 1.5;" x1="339" x2="445" y1="221" y2="221"/><ellipse cx="349" cy="232" fill="#84BE84" rx="3" ry="3" style="stroke: #038048; stroke-width: 1.0;"/><text fill="#000000" font-family="sans-serif" font-size="11" lengthAdjust="spacingAndGlyphs" textLength="82" x="358" y="235.6348">void PowerOn()</text><ellipse cx="349" cy="244.9551" fill="#84BE84" rx="3" ry="3" style="stroke: #038048; stroke-width: 1.0;"/><text fill="#000000" font-family="sans-serif" font-size="11" lengthAdjust="spacingAndGlyphs" textLength="80" x="358" y="248.5898">void OpenIDE()</text><!--MD5=[b57d2bdb0ec648c024f70c5efc1808d3]
class Study--><rect fill="#FEFECE" filter="url(#fbqvqv9e2l4kf)" height="112.7754" id="Study" style="stroke: #A80036; stroke-width: 1.5;" width="238" x="435" y="8"/><ellipse cx="534.25" cy="24" fill="#ADD1B2" rx="11" ry="11" style="stroke: #A80036; stroke-width: 1.0;"/><path d="M536.7231,30.1431 Q536.1421,30.4419 535.5029,30.5913 Q534.8638,30.7407 534.1582,30.7407 Q531.6514,30.7407 530.3315,29.0889 Q529.0117,27.437 529.0117,24.3159 Q529.0117,21.1865 530.3315,19.5347 Q531.6514,17.8828 534.1582,17.8828 Q534.8638,17.8828 535.5112,18.0322 Q536.1587,18.1816 536.7231,18.4805 L536.7231,21.2031 Q536.0923,20.6221 535.4988,20.3523 Q534.9053,20.0825 534.2744,20.0825 Q532.9297,20.0825 532.2449,21.1492 Q531.5601,22.2158 531.5601,24.3159 Q531.5601,26.4077 532.2449,27.4744 Q532.9297,28.541 534.2744,28.541 Q534.9053,28.541 535.4988,28.2712 Q536.0923,28.0015 536.7231,27.4204 Z "/><text fill="#000000" font-family="sans-serif" font-size="12" lengthAdjust="spacingAndGlyphs" textLength="31" x="554.75" y="28.5352">Study</text><line style="stroke: #A80036; stroke-width: 1.5;" x1="436" x2="672" y1="40" y2="40"/><rect fill="none" height="6" style="stroke: #C82930; stroke-width: 1.0;" width="6" x="443" y="48"/><text fill="#000000" font-family="sans-serif" font-size="11" lengthAdjust="spacingAndGlyphs" textLength="128" x="455" y="54.6348">HeadPhone _headPhone</text><rect fill="none" height="6" style="stroke: #C82930; stroke-width: 1.0;" width="6" x="443" y="60.9551"/><text fill="#000000" font-family="sans-serif" font-size="11" lengthAdjust="spacingAndGlyphs" textLength="104" x="455" y="67.5898">YouTube _youTube</text><rect fill="none" height="6" style="stroke: #C82930; stroke-width: 1.0;" width="6" x="443" y="73.9102"/><text fill="#000000" font-family="sans-serif" font-size="11" lengthAdjust="spacingAndGlyphs" textLength="115" x="455" y="80.5449">Computer _computer</text><line style="stroke: #A80036; stroke-width: 1.5;" x1="436" x2="672" y1="86.8652" y2="86.8652"/><ellipse cx="446" cy="97.8652" fill="#84BE84" rx="3" ry="3" style="stroke: #038048; stroke-width: 1.0;"/><text fill="#000000" font-family="sans-serif" font-size="11" lengthAdjust="spacingAndGlyphs" textLength="212" x="455" y="101.5">Study(HeadPhone, YouTube, Computer)</text><ellipse cx="446" cy="110.8203" fill="#84BE84" rx="3" ry="3" style="stroke: #038048; stroke-width: 1.0;"/><text fill="#000000" font-family="sans-serif" font-size="11" lengthAdjust="spacingAndGlyphs" textLength="132" x="455" y="114.4551">void StartProgramming()</text><path d="M6,36.5 L6,92.4316 A0,0 0 0 0 6,92.4316 L400,92.4316 A0,0 0 0 0 400,92.4316 L400,68.5 L434.96,64.5 L400,60.5 L400,46.5 L390,36.5 L6,36.5 A0,0 0 0 0 6,36.5 " fill="#FBFB77" filter="url(#fbqvqv9e2l4kf)" style="stroke: #A80036; stroke-width: 1.0;"/><path d="M390,36.5 L390,46.5 L400,46.5 L390,36.5 " fill="#FBFB77" style="stroke: #A80036; stroke-width: 1.0;"/><text fill="#000000" font-family="sans-serif" font-size="13" lengthAdjust="spacingAndGlyphs" textLength="346" x="12" y="54.0684">Computer, YouTube, HeadPhoneのサブシステムをまとめ</text><text fill="#000000" font-family="sans-serif" font-size="13" lengthAdjust="spacingAndGlyphs" textLength="373" x="12" y="69.3789">StartProgrammingという新しいインタフェースを提供している</text><text fill="#000000" font-family="sans-serif" font-size="13" lengthAdjust="spacingAndGlyphs" textLength="147" x="12" y="84.6895">Facadeパターンの実装例</text><!--MD5=[28388adc5bfcb4d2fdb54a0c767ce924]
reverse link Study to SubSystems.HeadPhone--><path d="M629.08,124.5 C634.2,128.98 639.23,133.51 644,138 C658.19,151.35 672.85,167.04 685.21,180.9 " fill="none" id="Study&lt;-SubSystems.HeadPhone" style="stroke: #A80036; stroke-width: 1.0; stroke-dasharray: 7.0,7.0;"/><polygon fill="#A80036" points="625.14,121.09,629.3343,130.0011,628.9232,124.3592,634.565,123.9481,625.14,121.09" style="stroke: #A80036; stroke-width: 1.0;"/><!--MD5=[59468da65baa0da8efc40ac1dd095c6b]
reverse link Study to SubSystems.YouTube--><path d="M554,126.23 C554,144.72 554,164.46 554,180.79 " fill="none" id="Study&lt;-SubSystems.YouTube" style="stroke: #A80036; stroke-width: 1.0; stroke-dasharray: 7.0,7.0;"/><polygon fill="#A80036" points="554,121.05,550,130.05,554,126.05,558,130.05,554,121.05" style="stroke: #A80036; stroke-width: 1.0;"/><!--MD5=[788f76e53cd9bb93f9f8e0d3dd3a0f20]
reverse link Study to SubSystems.Computer--><path d="M478.92,124.5 C473.8,128.98 468.77,133.51 464,138 C449.81,151.35 435.15,167.04 422.79,180.9 " fill="none" id="Study&lt;-SubSystems.Computer" style="stroke: #A80036; stroke-width: 1.0; stroke-dasharray: 7.0,7.0;"/><polygon fill="#A80036" points="482.86,121.09,473.435,123.9481,479.0768,124.3592,478.6657,130.0011,482.86,121.09" style="stroke: #A80036; stroke-width: 1.0;"/><!--MD5=[688112ec9c9aeaa3a518e33ff0610f16]
@startuml

SubSystems.HeadPhone .up.> Study
SubSystems.YouTube .up.> Study
SubSystems.Computer .up.> Study

class Study {
    - HeadPhone _headPhone
    - YouTube _youTube
    - Computer _computer
    + Study(HeadPhone, YouTube, Computer)
    + void StartProgramming()
}

class SubSystems.HeadPhone {
    + void PowerOn()
    + void Connect()
}

class SubSystems.YouTube {
    + void SearchVideoList()
    + void SelectVide()
}

class SubSystems.Computer {
    + void PowerOn()
    + void OpenIDE()
}

note left of Study 
    Computer, YouTube, HeadPhoneのサブシステムをまとめ
    StartProgrammingという新しいインタフェースを提供している
    Facadeパターンの実装例
end note
@enduml

PlantUML version 1.2020.10(Sun May 17 18:35:57 JST 2020)
(GPL source distribution)
Java Runtime: Java(TM) SE Runtime Environment
JVM: Java HotSpot(TM) 64-Bit Server VM
Java Version: 11.0.1+13-LTS
Operating System: Mac OS X
Default Encoding: UTF-8
Language: ja
Country: JP
--></g></svg>