<?xml version="1.0" encoding="UTF-8" standalone="no"?><svg xmlns="http://www.w3.org/2000/svg" xmlns:xlink="http://www.w3.org/1999/xlink" contentScriptType="application/ecmascript" contentStyleType="text/css" height="386px" preserveAspectRatio="none" style="width:389px;height:386px;" version="1.1" viewBox="0 0 389 386" width="389px" zoomAndPan="magnify"><defs><filter height="300%" id="f6n3ynshbwjfr" width="300%" x="-1" y="-1"><feGaussianBlur result="blurOut" stdDeviation="2.0"/><feColorMatrix in="blurOut" result="blurOut2" type="matrix" values="0 0 0 0 0 0 0 0 0 0 0 0 0 0 0 0 0 0 .4 0"/><feOffset dx="4.0" dy="4.0" in="blurOut2" result="blurOut3"/><feBlend in="SourceGraphic" in2="blurOut3" mode="normal"/></filter></defs><g><!--MD5=[27eb0c30e65d8b262e52e99e862b6c6e]
class MenuItem--><rect fill="#FEFECE" filter="url(#f6n3ynshbwjfr)" height="86.8652" id="MenuItem" style="stroke: #A80036; stroke-width: 1.5;" width="200" x="99.5" y="8"/><ellipse cx="167.25" cy="24" fill="#ADD1B2" rx="11" ry="11" style="stroke: #A80036; stroke-width: 1.0;"/><path d="M169.7231,30.1431 Q169.1421,30.4419 168.5029,30.5913 Q167.8638,30.7407 167.1582,30.7407 Q164.6514,30.7407 163.3315,29.0889 Q162.0117,27.437 162.0117,24.3159 Q162.0117,21.1865 163.3315,19.5347 Q164.6514,17.8828 167.1582,17.8828 Q167.8638,17.8828 168.5112,18.0322 Q169.1587,18.1816 169.7231,18.4805 L169.7231,21.2031 Q169.0923,20.6221 168.4988,20.3523 Q167.9053,20.0825 167.2744,20.0825 Q165.9297,20.0825 165.2449,21.1492 Q164.5601,22.2158 164.5601,24.3159 Q164.5601,26.4077 165.2449,27.4744 Q165.9297,28.541 167.2744,28.541 Q167.9053,28.541 168.4988,28.2712 Q169.0923,28.0015 169.7231,27.4204 Z "/><text fill="#000000" font-family="sans-serif" font-size="12" lengthAdjust="spacingAndGlyphs" textLength="56" x="187.75" y="28.5352">MenuItem</text><line style="stroke: #A80036; stroke-width: 1.5;" x1="100.5" x2="298.5" y1="40" y2="40"/><ellipse cx="110.5" cy="51" fill="none" rx="3" ry="3" style="stroke: #038048; stroke-width: 1.0;"/><text fill="#000000" font-family="sans-serif" font-size="11" lengthAdjust="spacingAndGlyphs" textLength="65" x="119.5" y="54.6348">string Name</text><ellipse cx="110.5" cy="63.9551" fill="none" rx="3" ry="3" style="stroke: #038048; stroke-width: 1.0;"/><text fill="#000000" font-family="sans-serif" font-size="11" lengthAdjust="spacingAndGlyphs" textLength="43" x="119.5" y="67.5898">int Price</text><line style="stroke: #A80036; stroke-width: 1.5;" x1="100.5" x2="298.5" y1="73.9102" y2="73.9102"/><ellipse cx="110.5" cy="84.9102" fill="#84BE84" rx="3" ry="3" style="stroke: #038048; stroke-width: 1.0;"/><text fill="#000000" font-family="sans-serif" font-size="11" lengthAdjust="spacingAndGlyphs" textLength="174" x="119.5" y="88.5449">MenuItem(string name, int price)</text><!--MD5=[bfa7c5b862f93b161e69938f74df4229]
class LunchMenu--><rect fill="#FEFECE" filter="url(#f6n3ynshbwjfr)" height="86.8652" id="LunchMenu" style="stroke: #A80036; stroke-width: 1.5;" width="183" x="6" y="155"/><ellipse cx="61.25" cy="171" fill="#ADD1B2" rx="11" ry="11" style="stroke: #A80036; stroke-width: 1.0;"/><path d="M63.7231,177.1431 Q63.1421,177.4419 62.5029,177.5913 Q61.8638,177.7407 61.1582,177.7407 Q58.6514,177.7407 57.3315,176.0889 Q56.0117,174.437 56.0117,171.3159 Q56.0117,168.1865 57.3315,166.5347 Q58.6514,164.8828 61.1582,164.8828 Q61.8638,164.8828 62.5112,165.0322 Q63.1587,165.1816 63.7231,165.4805 L63.7231,168.2031 Q63.0923,167.6221 62.4988,167.3523 Q61.9053,167.0825 61.2744,167.0825 Q59.9297,167.0825 59.2449,168.1492 Q58.5601,169.2158 58.5601,171.3159 Q58.5601,173.4077 59.2449,174.4744 Q59.9297,175.541 61.2744,175.541 Q61.9053,175.541 62.4988,175.2712 Q63.0923,175.0015 63.7231,174.4204 Z "/><text fill="#000000" font-family="sans-serif" font-size="12" lengthAdjust="spacingAndGlyphs" textLength="64" x="81.75" y="175.5352">LunchMenu</text><line style="stroke: #A80036; stroke-width: 1.5;" x1="7" x2="188" y1="187" y2="187"/><rect fill="none" height="6" style="stroke: #C82930; stroke-width: 1.0;" width="6" x="14" y="195"/><text fill="#000000" font-family="sans-serif" font-size="11" lengthAdjust="spacingAndGlyphs" textLength="157" x="26" y="201.6348">List&lt;MenuItem&gt; _menuItems</text><rect fill="none" height="6" style="stroke: #C82930; stroke-width: 1.0;" width="6" x="14" y="207.9551"/><text fill="#000000" font-family="sans-serif" font-size="11" lengthAdjust="spacingAndGlyphs" textLength="67" x="26" y="214.5898">int _position</text><line style="stroke: #A80036; stroke-width: 1.5;" x1="7" x2="188" y1="220.9102" y2="220.9102"/><ellipse cx="17" cy="231.9102" fill="#84BE84" rx="3" ry="3" style="stroke: #038048; stroke-width: 1.0;"/><text fill="#000000" font-family="sans-serif" font-size="11" lengthAdjust="spacingAndGlyphs" textLength="70" x="26" y="235.5449">LunchMenu()</text><!--MD5=[0321b0ee8154714e00d0c54547efbb35]
class DinerMenu--><rect fill="#FEFECE" filter="url(#f6n3ynshbwjfr)" height="86.8652" id="DinerMenu" style="stroke: #A80036; stroke-width: 1.5;" width="154" x="224.5" y="155"/><ellipse cx="266.5" cy="171" fill="#ADD1B2" rx="11" ry="11" style="stroke: #A80036; stroke-width: 1.0;"/><path d="M268.9731,177.1431 Q268.3921,177.4419 267.7529,177.5913 Q267.1138,177.7407 266.4082,177.7407 Q263.9014,177.7407 262.5815,176.0889 Q261.2617,174.437 261.2617,171.3159 Q261.2617,168.1865 262.5815,166.5347 Q263.9014,164.8828 266.4082,164.8828 Q267.1138,164.8828 267.7612,165.0322 Q268.4087,165.1816 268.9731,165.4805 L268.9731,168.2031 Q268.3423,167.6221 267.7488,167.3523 Q267.1553,167.0825 266.5244,167.0825 Q265.1797,167.0825 264.4949,168.1492 Q263.8101,169.2158 263.8101,171.3159 Q263.8101,173.4077 264.4949,174.4744 Q265.1797,175.541 266.5244,175.541 Q267.1553,175.541 267.7488,175.2712 Q268.3423,175.0015 268.9731,174.4204 Z "/><text fill="#000000" font-family="sans-serif" font-size="12" lengthAdjust="spacingAndGlyphs" textLength="62" x="286.5" y="175.5352">DinerMenu</text><line style="stroke: #A80036; stroke-width: 1.5;" x1="225.5" x2="377.5" y1="187" y2="187"/><rect fill="none" height="6" style="stroke: #C82930; stroke-width: 1.0;" width="6" x="232.5" y="195"/><text fill="#000000" font-family="sans-serif" font-size="11" lengthAdjust="spacingAndGlyphs" textLength="128" x="244.5" y="201.6348">MenuItem[] _menuItems</text><rect fill="none" height="6" style="stroke: #C82930; stroke-width: 1.0;" width="6" x="232.5" y="207.9551"/><text fill="#000000" font-family="sans-serif" font-size="11" lengthAdjust="spacingAndGlyphs" textLength="67" x="244.5" y="214.5898">int _position</text><line style="stroke: #A80036; stroke-width: 1.5;" x1="225.5" x2="377.5" y1="220.9102" y2="220.9102"/><ellipse cx="235.5" cy="231.9102" fill="#84BE84" rx="3" ry="3" style="stroke: #038048; stroke-width: 1.0;"/><text fill="#000000" font-family="sans-serif" font-size="11" lengthAdjust="spacingAndGlyphs" textLength="66" x="244.5" y="235.5449">DinerMenu()</text><!--MD5=[2520aa998778344ecdc8ee9b8268d4d5]
class IIterator--><rect fill="#FEFECE" filter="url(#f6n3ynshbwjfr)" height="73.9102" id="IIterator" style="stroke: #A80036; stroke-width: 1.5;" width="106" x="146.5" y="302"/><ellipse cx="174.55" cy="318" fill="#B4A7E5" rx="11" ry="11" style="stroke: #A80036; stroke-width: 1.0;"/><path d="M170.9777,314.2651 L170.9777,312.1069 L178.3571,312.1069 L178.3571,314.2651 L175.8918,314.2651 L175.8918,322.3418 L178.3571,322.3418 L178.3571,324.5 L170.9777,324.5 L170.9777,322.3418 L173.4431,322.3418 L173.4431,314.2651 Z "/><text fill="#000000" font-family="sans-serif" font-size="12" font-style="italic" lengthAdjust="spacingAndGlyphs" textLength="45" x="191.45" y="322.5352">IIterator</text><line style="stroke: #A80036; stroke-width: 1.5;" x1="147.5" x2="251.5" y1="334" y2="334"/><line style="stroke: #A80036; stroke-width: 1.5;" x1="147.5" x2="251.5" y1="342" y2="342"/><ellipse cx="157.5" cy="353" fill="#84BE84" rx="3" ry="3" style="stroke: #038048; stroke-width: 1.0;"/><text fill="#000000" font-family="sans-serif" font-size="11" lengthAdjust="spacingAndGlyphs" textLength="80" x="166.5" y="356.6348">bool HasNext()</text><ellipse cx="157.5" cy="365.9551" fill="#84BE84" rx="3" ry="3" style="stroke: #038048; stroke-width: 1.0;"/><text fill="#000000" font-family="sans-serif" font-size="11" lengthAdjust="spacingAndGlyphs" textLength="71" x="166.5" y="369.5898">Object Next()</text><!--MD5=[1d531586ca417577c1a0788bbe432a01]
link MenuItem to LunchMenu--><path d="M169.45,95.22 C158.75,110.42 146.57,127.74 135.31,143.75 " fill="none" id="MenuItem-&gt;LunchMenu" style="stroke: #A80036; stroke-width: 1.0;"/><polygon fill="#FFFFFF" points="127.69,154.58,134.4152,151.9778,134.5998,144.7691,127.8746,147.3713,127.69,154.58" style="stroke: #A80036; stroke-width: 1.0;"/><!--MD5=[ec012ae4edccf739867f55fb1fae224f]
link MenuItem to DinerMenu--><path d="M229.55,95.22 C240.25,110.42 252.43,127.74 263.69,143.75 " fill="none" id="MenuItem-&gt;DinerMenu" style="stroke: #A80036; stroke-width: 1.0;"/><polygon fill="#FFFFFF" points="271.31,154.58,271.1254,147.3713,264.4002,144.7691,264.5848,151.9778,271.31,154.58" style="stroke: #A80036; stroke-width: 1.0;"/><!--MD5=[1d277d650de2e335337f3e8257bc090e]
link LunchMenu to IIterator--><path d="M128.94,242.18 C139.03,255.9 150.34,271.24 160.89,285.57 " fill="none" id="LunchMenu-&gt;IIterator" style="stroke: #A80036; stroke-width: 1.0; stroke-dasharray: 7.0,7.0;"/><polygon fill="none" points="166.59,281.5,172.81,301.76,155.31,289.8,166.59,281.5" style="stroke: #A80036; stroke-width: 1.0;"/><!--MD5=[6b891bc323edd52bc7803f6acf635d4f]
link DinerMenu to IIterator--><path d="M270.06,242.18 C259.97,255.9 248.66,271.24 238.11,285.57 " fill="none" id="DinerMenu-&gt;IIterator" style="stroke: #A80036; stroke-width: 1.0; stroke-dasharray: 7.0,7.0;"/><polygon fill="none" points="243.69,289.8,226.19,301.76,232.41,281.5,243.69,289.8" style="stroke: #A80036; stroke-width: 1.0;"/><!--MD5=[02e79015ac7b00298defe7580cdd2251]
@startuml

MenuItem - -o LunchMenu
MenuItem - -o DinerMenu

LunchMenu ..|> IIterator
DinerMenu ..|> IIterator

interface IIterator {
    + bool HasNext()
    + Object Next()
}

class MenuItem {
    + string Name
    + int Price
    + MenuItem(string name, int price)
}

class LunchMenu {
    - List<MenuItem> _menuItems
    - int _position
    + LunchMenu()
}

class DinerMenu {
    - MenuItem[] _menuItems
    - int _position
    + DinerMenu()
}

@enduml

PlantUML version 1.2020.10(Sun May 17 18:35:57 JST 2020)
(GPL source distribution)
Java Runtime: Java(TM) SE Runtime Environment
JVM: Java HotSpot(TM) 64-Bit Server VM
Java Version: 11.0.1+13-LTS
Operating System: Mac OS X
Default Encoding: UTF-8
Language: ja
Country: JP
--></g></svg>