<?xml version="1.0" encoding="UTF-8" standalone="no"?><svg xmlns="http://www.w3.org/2000/svg" xmlns:xlink="http://www.w3.org/1999/xlink" contentScriptType="application/ecmascript" contentStyleType="text/css" height="347px" preserveAspectRatio="none" style="width:369px;height:347px;" version="1.1" viewBox="0 0 369 347" width="369px" zoomAndPan="magnify"><defs><filter height="300%" id="f1nakw7g6a2h56" width="300%" x="-1" y="-1"><feGaussianBlur result="blurOut" stdDeviation="2.0"/><feColorMatrix in="blurOut" result="blurOut2" type="matrix" values="0 0 0 0 0 0 0 0 0 0 0 0 0 0 0 0 0 0 .4 0"/><feOffset dx="4.0" dy="4.0" in="blurOut2" result="blurOut3"/><feBlend in="SourceGraphic" in2="blurOut3" mode="normal"/></filter></defs><g><!--MD5=[b33fff5e7c503d6601ba034387b27fd0]
class IAttack--><rect fill="#FEFECE" filter="url(#f1nakw7g6a2h56)" height="60.9551" id="IAttack" style="stroke: #A80036; stroke-width: 1.5;" width="94" x="135" y="155"/><ellipse cx="160.35" cy="171" fill="#B4A7E5" rx="11" ry="11" style="stroke: #A80036; stroke-width: 1.0;"/><path d="M156.7777,167.2651 L156.7777,165.1069 L164.1571,165.1069 L164.1571,167.2651 L161.6918,167.2651 L161.6918,175.3418 L164.1571,175.3418 L164.1571,177.5 L156.7777,177.5 L156.7777,175.3418 L159.2431,175.3418 L159.2431,167.2651 Z "/><text fill="#000000" font-family="sans-serif" font-size="12" font-style="italic" lengthAdjust="spacingAndGlyphs" textLength="39" x="176.65" y="175.5352">IAttack</text><line style="stroke: #A80036; stroke-width: 1.5;" x1="136" x2="228" y1="187" y2="187"/><line style="stroke: #A80036; stroke-width: 1.5;" x1="136" x2="228" y1="195" y2="195"/><ellipse cx="146" cy="206" fill="#84BE84" rx="3" ry="3" style="stroke: #038048; stroke-width: 1.0;"/><text fill="#000000" font-family="sans-serif" font-size="11" lengthAdjust="spacingAndGlyphs" textLength="68" x="155" y="209.6348">void Attack()</text><!--MD5=[2cb47ba637a0d19583e6199456f6ad0b]
class Player--><rect fill="#FEFECE" filter="url(#f1nakw7g6a2h56)" height="86.8652" id="Player" style="stroke: #A80036; stroke-width: 1.5;" width="182" x="91" y="8"/><ellipse cx="160.25" cy="24" fill="#ADD1B2" rx="11" ry="11" style="stroke: #A80036; stroke-width: 1.0;"/><path d="M162.7231,30.1431 Q162.1421,30.4419 161.5029,30.5913 Q160.8638,30.7407 160.1582,30.7407 Q157.6514,30.7407 156.3315,29.0889 Q155.0117,27.437 155.0117,24.3159 Q155.0117,21.1865 156.3315,19.5347 Q157.6514,17.8828 160.1582,17.8828 Q160.8638,17.8828 161.5112,18.0322 Q162.1587,18.1816 162.7231,18.4805 L162.7231,21.2031 Q162.0923,20.6221 161.4988,20.3523 Q160.9053,20.0825 160.2744,20.0825 Q158.9297,20.0825 158.2449,21.1492 Q157.5601,22.2158 157.5601,24.3159 Q157.5601,26.4077 158.2449,27.4744 Q158.9297,28.541 160.2744,28.541 Q160.9053,28.541 161.4988,28.2712 Q162.0923,28.0015 162.7231,27.4204 Z "/><text fill="#000000" font-family="sans-serif" font-size="12" lengthAdjust="spacingAndGlyphs" textLength="35" x="180.75" y="28.5352">Player</text><line style="stroke: #A80036; stroke-width: 1.5;" x1="92" x2="272" y1="40" y2="40"/><rect fill="none" height="6" style="stroke: #C82930; stroke-width: 1.0;" width="6" x="99" y="48"/><text fill="#000000" font-family="sans-serif" font-size="11" lengthAdjust="spacingAndGlyphs" textLength="78" x="111" y="54.6348">IAttack _attack</text><line style="stroke: #A80036; stroke-width: 1.5;" x1="92" x2="272" y1="60.9551" y2="60.9551"/><ellipse cx="102" cy="71.9551" fill="#84BE84" rx="3" ry="3" style="stroke: #038048; stroke-width: 1.0;"/><text fill="#000000" font-family="sans-serif" font-size="11" lengthAdjust="spacingAndGlyphs" textLength="68" x="111" y="75.5898">void Attack()</text><ellipse cx="102" cy="84.9102" fill="#84BE84" rx="3" ry="3" style="stroke: #038048; stroke-width: 1.0;"/><text fill="#000000" font-family="sans-serif" font-size="11" lengthAdjust="spacingAndGlyphs" textLength="156" x="111" y="88.5449">void SetAttack(IAttack attack)</text><!--MD5=[d4ba39eba90cae86860cc2508575002b]
class Hit--><rect fill="#FEFECE" filter="url(#f1nakw7g6a2h56)" height="60.9551" id="Hit" style="stroke: #A80036; stroke-width: 1.5;" width="94" x="6" y="276"/><ellipse cx="41.7" cy="292" fill="#ADD1B2" rx="11" ry="11" style="stroke: #A80036; stroke-width: 1.0;"/><path d="M44.1731,298.1431 Q43.5921,298.4419 42.9529,298.5913 Q42.3138,298.7407 41.6082,298.7407 Q39.1014,298.7407 37.7815,297.0889 Q36.4617,295.437 36.4617,292.3159 Q36.4617,289.1865 37.7815,287.5347 Q39.1014,285.8828 41.6082,285.8828 Q42.3138,285.8828 42.9612,286.0322 Q43.6087,286.1816 44.1731,286.4805 L44.1731,289.2031 Q43.5423,288.6221 42.9488,288.3523 Q42.3553,288.0825 41.7244,288.0825 Q40.3797,288.0825 39.6949,289.1492 Q39.0101,290.2158 39.0101,292.3159 Q39.0101,294.4077 39.6949,295.4744 Q40.3797,296.541 41.7244,296.541 Q42.3553,296.541 42.9488,296.2712 Q43.5423,296.0015 44.1731,295.4204 Z "/><text fill="#000000" font-family="sans-serif" font-size="12" lengthAdjust="spacingAndGlyphs" textLength="16" x="60.3" y="296.5352">Hit</text><line style="stroke: #A80036; stroke-width: 1.5;" x1="7" x2="99" y1="308" y2="308"/><line style="stroke: #A80036; stroke-width: 1.5;" x1="7" x2="99" y1="316" y2="316"/><ellipse cx="17" cy="327" fill="#84BE84" rx="3" ry="3" style="stroke: #038048; stroke-width: 1.0;"/><text fill="#000000" font-family="sans-serif" font-size="11" lengthAdjust="spacingAndGlyphs" textLength="68" x="26" y="330.6348">void Attack()</text><!--MD5=[285ec285984ff18000fe89d9c1af29d2]
class Slash--><rect fill="#FEFECE" filter="url(#f1nakw7g6a2h56)" height="60.9551" id="Slash" style="stroke: #A80036; stroke-width: 1.5;" width="94" x="135" y="276"/><ellipse cx="164.85" cy="292" fill="#ADD1B2" rx="11" ry="11" style="stroke: #A80036; stroke-width: 1.0;"/><path d="M167.3231,298.1431 Q166.7421,298.4419 166.1029,298.5913 Q165.4638,298.7407 164.7582,298.7407 Q162.2514,298.7407 160.9315,297.0889 Q159.6117,295.437 159.6117,292.3159 Q159.6117,289.1865 160.9315,287.5347 Q162.2514,285.8828 164.7582,285.8828 Q165.4638,285.8828 166.1112,286.0322 Q166.7587,286.1816 167.3231,286.4805 L167.3231,289.2031 Q166.6923,288.6221 166.0988,288.3523 Q165.5053,288.0825 164.8744,288.0825 Q163.5297,288.0825 162.8449,289.1492 Q162.1601,290.2158 162.1601,292.3159 Q162.1601,294.4077 162.8449,295.4744 Q163.5297,296.541 164.8744,296.541 Q165.5053,296.541 166.0988,296.2712 Q166.6923,296.0015 167.3231,295.4204 Z "/><text fill="#000000" font-family="sans-serif" font-size="12" lengthAdjust="spacingAndGlyphs" textLength="29" x="182.15" y="296.5352">Slash</text><line style="stroke: #A80036; stroke-width: 1.5;" x1="136" x2="228" y1="308" y2="308"/><line style="stroke: #A80036; stroke-width: 1.5;" x1="136" x2="228" y1="316" y2="316"/><ellipse cx="146" cy="327" fill="#84BE84" rx="3" ry="3" style="stroke: #038048; stroke-width: 1.0;"/><text fill="#000000" font-family="sans-serif" font-size="11" lengthAdjust="spacingAndGlyphs" textLength="68" x="155" y="330.6348">void Attack()</text><!--MD5=[807c45b67e9f6e94d6af70e3d62d2692]
class Magic--><rect fill="#FEFECE" filter="url(#f1nakw7g6a2h56)" height="60.9551" id="Magic" style="stroke: #A80036; stroke-width: 1.5;" width="94" x="264" y="276"/><ellipse cx="292.05" cy="292" fill="#ADD1B2" rx="11" ry="11" style="stroke: #A80036; stroke-width: 1.0;"/><path d="M294.5231,298.1431 Q293.9421,298.4419 293.3029,298.5913 Q292.6638,298.7407 291.9582,298.7407 Q289.4514,298.7407 288.1315,297.0889 Q286.8117,295.437 286.8117,292.3159 Q286.8117,289.1865 288.1315,287.5347 Q289.4514,285.8828 291.9582,285.8828 Q292.6638,285.8828 293.3112,286.0322 Q293.9587,286.1816 294.5231,286.4805 L294.5231,289.2031 Q293.8923,288.6221 293.2988,288.3523 Q292.7053,288.0825 292.0744,288.0825 Q290.7297,288.0825 290.0449,289.1492 Q289.3601,290.2158 289.3601,292.3159 Q289.3601,294.4077 290.0449,295.4744 Q290.7297,296.541 292.0744,296.541 Q292.7053,296.541 293.2988,296.2712 Q293.8923,296.0015 294.5231,295.4204 Z "/><text fill="#000000" font-family="sans-serif" font-size="12" lengthAdjust="spacingAndGlyphs" textLength="33" x="308.95" y="296.5352">Magic</text><line style="stroke: #A80036; stroke-width: 1.5;" x1="265" x2="357" y1="308" y2="308"/><line style="stroke: #A80036; stroke-width: 1.5;" x1="265" x2="357" y1="316" y2="316"/><ellipse cx="275" cy="327" fill="#84BE84" rx="3" ry="3" style="stroke: #038048; stroke-width: 1.0;"/><text fill="#000000" font-family="sans-serif" font-size="11" lengthAdjust="spacingAndGlyphs" textLength="68" x="284" y="330.6348">void Attack()</text><!--MD5=[0fc2a8c214b061b643bf250d7117f630]
reverse link IAttack to Hit--><path d="M134.92,229.93 C118.42,245.15 100.27,261.9 85.26,275.74 " fill="none" id="IAttack&lt;-Hit" style="stroke: #A80036; stroke-width: 1.0; stroke-dasharray: 7.0,7.0;"/><polygon fill="none" points="130.33,224.64,149.78,216.22,139.83,234.93,130.33,224.64" style="stroke: #A80036; stroke-width: 1.0;"/><!--MD5=[7f520557bf7c7517f4b93a7c5985e034]
reverse link IAttack to Slash--><path d="M182,236.33 C182,249.73 182,263.81 182,275.74 " fill="none" id="IAttack&lt;-Slash" style="stroke: #A80036; stroke-width: 1.0; stroke-dasharray: 7.0,7.0;"/><polygon fill="none" points="175,236.22,182,216.22,189,236.22,175,236.22" style="stroke: #A80036; stroke-width: 1.0;"/><!--MD5=[49331ad71272e5c53ecb38ff36727d83]
reverse link IAttack to Magic--><path d="M229.08,229.93 C245.58,245.15 263.73,261.9 278.74,275.74 " fill="none" id="IAttack&lt;-Magic" style="stroke: #A80036; stroke-width: 1.0; stroke-dasharray: 7.0,7.0;"/><polygon fill="none" points="224.17,234.93,214.22,216.22,233.67,224.64,224.17,234.93" style="stroke: #A80036; stroke-width: 1.0;"/><!--MD5=[a572f34d47fd45d291f49382a4781e6b]
link Player to IAttack--><path d="M182,95.36 C182,112.96 182,133.07 182,149.74 " fill="none" id="Player-&gt;IAttack" style="stroke: #A80036; stroke-width: 1.0; stroke-dasharray: 7.0,7.0;"/><polygon fill="#A80036" points="182,154.79,186,145.79,182,149.79,178,145.79,182,154.79" style="stroke: #A80036; stroke-width: 1.0;"/><!--MD5=[82e3ede1da39b1db33e1a2c1fce254a1]
@startuml
interface IAttack {
    + void Attack()
}

class Player {
    - IAttack _attack
    + void Attack()
    + void SetAttack(IAttack attack)
}

class Hit {
    + void Attack()
}

class Slash {
    + void Attack()
}

class Magic {
    + void Attack()
}

Hit .up.|> IAttack
Slash .up.|> IAttack
Magic .up.|> IAttack

Player .down.> IAttack
@enduml

PlantUML version 1.2020.10(Sun May 17 18:35:57 JST 2020)
(GPL source distribution)
Java Runtime: Java(TM) SE Runtime Environment
JVM: Java HotSpot(TM) 64-Bit Server VM
Java Version: 11.0.1+13-LTS
Operating System: Mac OS X
Default Encoding: UTF-8
Language: ja
Country: JP
--></g></svg>